<svg id="svg" version="1.1" xmlns="http://www.w3.org/2000/svg" xmlns:xlink="http://www.w3.org/1999/xlink" width="400" height="400" viewBox="0, 0, 400,400"><g id="svgg"><path id="path0" d="M145.939 295.552 C 142.009 298.045,140.607 302.297,142.435 306.185 C 146.011 313.792,156.390 313.023,158.765 304.976 C 160.858 297.878,152.248 291.552,145.939 295.552 M221.139 295.552 C 217.209 298.045,215.807 302.297,217.635 306.185 C 221.211 313.792,231.590 313.023,233.965 304.976 C 236.058 297.878,227.448 291.552,221.139 295.552 M197.592 322.930 C 193.351 324.669,190.567 326.601,186.155 330.863 C 181.925 334.950,181.447 335.284,176.273 337.772 C 168.196 341.656,168.060 342.970,175.027 349.800 C 183.913 358.512,191.087 369.124,189.081 370.590 C 188.543 370.984,188.560 371.149,189.227 372.018 C 189.642 372.558,189.986 373.225,189.991 373.500 C 189.996 373.775,190.180 374.000,190.400 374.000 C 190.620 374.000,190.800 374.277,190.800 374.616 C 190.800 375.427,195.762 380.400,196.571 380.400 C 196.917 380.400,197.200 380.580,197.200 380.800 C 197.200 381.025,198.325 381.200,199.776 381.200 C 201.193 381.200,202.464 381.020,202.600 380.800 C 202.736 380.580,203.119 380.400,203.452 380.400 C 204.245 380.400,209.200 375.413,209.200 374.616 C 209.200 374.277,209.380 374.000,209.600 374.000 C 209.820 374.000,210.004 373.775,210.009 373.500 C 210.014 373.225,210.358 372.558,210.773 372.018 C 211.440 371.149,211.457 370.984,210.919 370.590 C 208.913 369.124,216.087 358.512,224.973 349.800 C 231.937 342.973,231.802 341.655,223.743 337.780 C 218.555 335.285,218.121 334.980,213.645 330.676 C 209.645 326.829,208.419 325.907,205.184 324.308 C 200.277 321.882,200.187 321.866,197.592 322.930 M189.600 339.600 C 190.706 340.706,190.684 343.960,189.554 346.294 C 187.412 350.721,183.002 350.307,183.107 345.691 C 183.213 341.031,187.247 337.247,189.600 339.600 M213.884 339.586 C 216.810 341.370,217.984 346.823,215.838 348.669 C 213.263 350.883,209.600 347.245,209.600 342.474 C 209.600 339.125,211.275 337.995,213.884 339.586 " stroke="none" fill="#f1d743" fill-rule="evenodd"></path><path id="path1" d="M195.200 39.794 C 187.719 41.850,181.236 48.215,176.723 57.930 C 175.837 59.839,175.042 61.475,174.956 61.567 C 174.870 61.658,174.125 61.049,173.300 60.213 C 169.145 56.000,161.042 55.582,154.523 59.243 C 153.724 59.692,152.739 59.973,152.335 59.867 C 151.931 59.761,151.600 59.808,151.600 59.970 C 151.600 60.132,151.105 60.520,150.500 60.832 C 149.895 61.144,149.310 61.489,149.200 61.599 C 149.090 61.710,148.190 62.423,147.200 63.184 C 143.918 65.708,141.529 68.156,138.377 72.222 C 136.082 75.182,134.777 76.492,133.430 77.185 C 132.423 77.702,131.600 78.277,131.600 78.463 C 131.600 78.648,131.375 78.801,131.100 78.802 C 130.825 78.803,129.700 79.484,128.600 80.315 C 127.500 81.146,125.747 82.225,124.703 82.713 C 123.660 83.202,122.040 84.418,121.103 85.416 C 118.104 88.613,117.761 88.709,116.808 86.617 C 115.842 84.497,113.306 82.800,111.103 82.800 C 109.408 82.800,96.400 97.279,96.400 99.165 C 96.400 99.368,96.246 99.593,96.059 99.667 C 95.871 99.740,94.476 101.705,92.959 104.032 C 90.247 108.193,89.831 108.864,88.419 111.355 C 88.031 112.040,87.247 113.410,86.678 114.400 C 85.543 116.374,79.559 128.381,77.808 132.200 C 77.202 133.520,76.079 135.950,75.311 137.600 C 74.543 139.250,73.778 140.960,73.611 141.400 C 73.443 141.840,72.725 143.460,72.015 145.000 C 71.305 146.540,70.561 148.205,70.362 148.700 C 69.582 150.640,69.186 151.636,68.854 152.500 C 68.663 152.995,68.279 153.940,68.000 154.600 C 67.721 155.260,67.337 156.205,67.146 156.700 C 66.956 157.195,66.596 158.095,66.346 158.700 C 66.097 159.305,65.761 160.160,65.600 160.600 C 65.321 161.361,65.017 162.135,64.104 164.400 C 63.078 166.948,61.702 169.591,60.314 171.678 C 59.481 172.931,58.800 174.141,58.800 174.366 C 58.800 174.591,58.440 175.417,58.000 176.200 C 57.560 176.983,57.200 177.891,57.200 178.218 C 57.200 178.544,57.020 179.168,56.800 179.605 C 56.580 180.042,56.220 180.758,56.000 181.195 C 55.780 181.632,55.600 182.341,55.600 182.771 C 55.600 183.201,55.420 183.664,55.200 183.800 C 54.980 183.936,54.800 184.566,54.800 185.200 C 54.800 185.834,54.620 186.464,54.400 186.600 C 54.180 186.736,54.000 187.636,54.000 188.600 C 54.000 189.564,53.820 190.464,53.600 190.600 C 53.380 190.736,53.200 191.816,53.200 193.000 C 53.200 194.184,53.020 195.264,52.800 195.400 C 52.546 195.557,52.400 200.596,52.400 209.200 C 52.400 217.804,52.546 222.843,52.800 223.000 C 53.020 223.136,53.200 224.216,53.200 225.400 C 53.200 226.584,53.380 227.664,53.600 227.800 C 53.820 227.936,54.000 228.609,54.000 229.295 C 54.000 229.982,54.168 231.096,54.373 231.772 C 54.578 232.447,54.956 233.810,55.212 234.800 C 55.468 235.790,55.840 236.913,56.039 237.295 C 56.238 237.677,56.400 238.431,56.400 238.971 C 56.400 239.511,56.580 240.064,56.800 240.200 C 57.020 240.336,57.200 240.799,57.200 241.229 C 57.200 241.659,57.359 242.323,57.553 242.705 C 57.748 243.087,58.129 243.940,58.400 244.600 C 58.671 245.260,59.052 246.113,59.247 246.495 C 59.441 246.877,59.600 247.462,59.600 247.795 C 59.600 248.128,59.780 248.400,60.000 248.400 C 60.220 248.400,60.400 248.672,60.400 249.005 C 60.400 249.634,60.627 250.178,61.738 252.200 C 62.100 252.860,62.887 254.390,63.487 255.600 C 64.087 256.810,64.897 258.149,65.289 258.575 C 65.680 259.002,66.000 259.587,66.000 259.875 C 66.000 260.164,66.180 260.400,66.400 260.400 C 66.620 260.400,66.800 260.636,66.800 260.925 C 66.800 261.213,67.160 261.836,67.600 262.308 C 68.040 262.780,68.400 263.320,68.400 263.508 C 68.400 263.696,68.715 264.198,69.100 264.625 C 69.485 265.052,70.292 266.060,70.894 266.866 C 71.496 267.671,72.216 268.571,72.494 268.865 C 72.772 269.159,73.621 270.210,74.380 271.200 C 75.139 272.190,77.533 274.620,79.701 276.600 C 81.869 278.580,84.075 280.605,84.603 281.100 C 85.131 281.595,85.707 282.000,85.882 282.000 C 86.057 282.001,86.740 282.466,87.400 283.035 C 88.060 283.604,89.095 284.363,89.700 284.721 C 90.305 285.079,90.800 285.514,90.800 285.686 C 90.800 285.859,91.048 286.000,91.351 286.000 C 91.655 286.000,92.774 287.035,93.839 288.300 C 101.175 297.012,111.373 306.523,119.037 311.800 C 120.634 312.900,123.034 314.572,124.371 315.515 C 125.707 316.458,126.800 317.102,126.800 316.945 C 126.800 316.789,127.250 317.083,127.800 317.600 C 128.350 318.117,128.803 318.373,128.806 318.170 C 128.809 317.966,128.952 318.019,129.122 318.287 C 129.404 318.731,132.406 320.465,136.000 322.259 C 136.770 322.644,137.490 323.058,137.600 323.179 C 137.710 323.301,138.490 323.760,139.334 324.200 C 140.177 324.640,141.167 325.540,141.534 326.200 C 141.900 326.860,142.299 327.490,142.419 327.600 C 142.540 327.710,143.070 328.417,143.597 329.171 C 146.369 333.136,156.162 342.800,157.407 342.800 C 157.636 342.800,158.083 343.160,158.400 343.600 C 158.717 344.040,159.173 344.400,159.413 344.400 C 159.653 344.400,160.206 344.715,160.642 345.100 C 161.648 345.989,163.384 347.035,165.300 347.906 C 166.125 348.282,166.800 348.726,166.800 348.894 C 166.800 349.062,167.160 349.200,167.600 349.200 C 168.040 349.200,168.400 349.380,168.400 349.600 C 168.400 349.820,168.724 350.000,169.120 350.000 C 169.516 350.000,170.011 350.160,170.220 350.355 C 172.524 352.508,173.762 350.180,171.534 347.884 C 170.628 346.951,170.000 345.914,170.000 345.352 C 170.000 344.828,169.820 344.400,169.600 344.400 C 168.757 344.400,169.158 340.805,170.103 339.882 C 171.144 338.866,174.209 337.200,175.038 337.200 C 175.347 337.200,175.600 337.020,175.600 336.800 C 175.600 336.580,175.949 336.400,176.376 336.400 C 176.803 336.400,177.264 336.220,177.400 336.000 C 177.536 335.780,177.919 335.600,178.252 335.600 C 179.297 335.600,182.183 333.350,185.855 329.673 C 189.567 325.957,191.667 324.387,195.000 322.841 C 196.100 322.330,197.313 321.752,197.695 321.556 C 198.591 321.097,201.409 321.097,202.305 321.556 C 202.687 321.752,203.900 322.330,205.000 322.841 C 208.333 324.387,210.433 325.957,214.145 329.673 C 217.817 333.350,220.703 335.600,221.748 335.600 C 222.081 335.600,222.464 335.780,222.600 336.000 C 222.736 336.220,223.197 336.400,223.624 336.400 C 224.051 336.400,224.400 336.580,224.400 336.800 C 224.400 337.020,224.653 337.200,224.962 337.200 C 225.791 337.200,228.856 338.866,229.897 339.882 C 230.842 340.805,231.243 344.400,230.400 344.400 C 230.180 344.400,230.000 344.828,230.000 345.352 C 230.000 345.914,229.372 346.951,228.466 347.884 C 226.238 350.180,227.476 352.508,229.780 350.355 C 229.989 350.160,230.484 350.000,230.880 350.000 C 231.276 350.000,231.600 349.820,231.600 349.600 C 231.600 349.380,231.960 349.200,232.400 349.200 C 232.840 349.200,233.200 349.062,233.200 348.894 C 233.200 348.726,233.875 348.282,234.700 347.906 C 236.616 347.035,238.352 345.989,239.358 345.100 C 239.794 344.715,240.347 344.400,240.587 344.400 C 240.827 344.400,241.283 344.040,241.600 343.600 C 241.917 343.160,242.364 342.800,242.593 342.800 C 243.838 342.800,253.631 333.136,256.403 329.171 C 256.930 328.417,257.460 327.710,257.581 327.600 C 257.701 327.490,258.100 326.860,258.466 326.200 C 258.833 325.540,259.823 324.640,260.666 324.200 C 261.510 323.760,262.290 323.310,262.400 323.200 C 262.632 322.968,264.761 321.810,268.300 319.992 C 269.675 319.285,270.800 318.537,270.800 318.330 C 270.800 318.123,270.960 318.051,271.155 318.172 C 271.350 318.293,271.740 318.113,272.023 317.772 C 272.305 317.432,273.091 316.920,273.768 316.635 C 274.446 316.350,275.900 315.423,277.000 314.576 C 278.100 313.729,280.097 312.307,281.439 311.418 C 288.239 306.907,298.776 297.052,306.157 288.300 C 307.224 287.035,308.345 286.000,308.649 286.000 C 308.952 286.000,309.200 285.859,309.200 285.686 C 309.200 285.514,309.695 285.079,310.300 284.721 C 310.905 284.363,311.940 283.604,312.600 283.035 C 313.260 282.466,313.943 282.001,314.118 282.000 C 314.293 282.000,314.869 281.595,315.397 281.100 C 315.925 280.605,318.131 278.580,320.299 276.600 C 322.467 274.620,324.861 272.190,325.620 271.200 C 326.379 270.210,327.228 269.159,327.506 268.865 C 327.784 268.571,328.503 267.671,329.104 266.865 C 329.704 266.059,330.298 265.310,330.424 265.200 C 330.977 264.717,333.200 261.215,333.200 260.828 C 333.200 260.593,333.380 260.400,333.600 260.400 C 333.820 260.400,334.000 260.164,334.000 259.875 C 334.000 259.587,334.320 259.002,334.711 258.575 C 335.103 258.149,335.913 256.810,336.513 255.600 C 337.113 254.390,337.900 252.860,338.262 252.200 C 339.373 250.178,339.600 249.634,339.600 249.005 C 339.600 248.672,339.780 248.400,340.000 248.400 C 340.220 248.400,340.400 248.128,340.400 247.795 C 340.400 247.462,340.559 246.877,340.753 246.495 C 340.948 246.113,341.329 245.260,341.600 244.600 C 341.871 243.940,342.252 243.087,342.447 242.705 C 342.641 242.323,342.800 241.659,342.800 241.229 C 342.800 240.799,342.980 240.336,343.200 240.200 C 343.420 240.064,343.600 239.511,343.600 238.971 C 343.600 238.431,343.762 237.677,343.961 237.295 C 344.160 236.913,344.532 235.790,344.788 234.800 C 345.044 233.810,345.422 232.447,345.627 231.772 C 345.832 231.096,346.000 229.982,346.000 229.295 C 346.000 228.609,346.180 227.936,346.400 227.800 C 346.620 227.664,346.800 226.584,346.800 225.400 C 346.800 224.216,346.980 223.136,347.200 223.000 C 347.746 222.662,347.746 195.738,347.200 195.400 C 346.980 195.264,346.800 194.184,346.800 193.000 C 346.800 191.816,346.620 190.736,346.400 190.600 C 346.180 190.464,346.000 189.564,346.000 188.600 C 346.000 187.636,345.820 186.736,345.600 186.600 C 345.380 186.464,345.200 185.834,345.200 185.200 C 345.200 184.566,345.020 183.936,344.800 183.800 C 344.580 183.664,344.400 183.124,344.400 182.600 C 344.400 182.076,344.220 181.536,344.000 181.400 C 343.780 181.264,343.600 180.801,343.600 180.371 C 343.600 179.941,343.443 179.277,343.250 178.895 C 341.853 176.122,341.200 174.671,341.200 174.340 C 341.200 174.129,340.519 172.931,339.686 171.678 C 338.299 169.591,336.742 166.600,336.003 164.600 C 335.840 164.160,335.479 163.260,335.200 162.600 C 334.921 161.940,334.561 161.040,334.400 160.600 C 334.239 160.160,333.879 159.260,333.600 158.600 C 332.954 157.072,332.373 155.619,332.000 154.600 C 331.839 154.160,331.503 153.305,331.254 152.700 C 331.004 152.095,330.620 151.150,330.400 150.600 C 329.624 148.660,329.243 147.772,328.000 145.000 C 327.309 143.460,326.596 141.840,326.414 141.400 C 326.233 140.960,325.457 139.250,324.689 137.600 C 323.921 135.950,322.797 133.520,322.190 132.200 C 320.305 128.101,314.428 116.292,313.331 114.400 C 312.757 113.410,311.969 112.040,311.581 111.355 C 310.133 108.799,309.736 108.169,307.000 104.072 C 305.460 101.766,304.020 99.588,303.800 99.232 C 302.210 96.661,295.416 88.430,291.145 83.900 C 289.034 81.661,284.777 83.139,283.169 86.669 C 282.242 88.703,281.882 88.598,278.897 85.416 C 277.960 84.418,276.340 83.202,275.297 82.713 C 274.253 82.225,272.500 81.146,271.400 80.315 C 270.300 79.484,269.190 78.803,268.933 78.802 C 268.677 78.801,268.407 78.640,268.333 78.444 C 268.260 78.249,267.390 77.638,266.400 77.088 C 265.182 76.410,263.726 74.941,261.898 72.543 C 259.118 68.897,255.413 65.093,252.600 62.997 C 251.720 62.341,250.910 61.713,250.800 61.602 C 250.690 61.490,250.105 61.144,249.500 60.832 C 248.895 60.520,248.400 60.132,248.400 59.970 C 248.400 59.808,248.069 59.761,247.665 59.867 C 247.261 59.973,246.276 59.692,245.477 59.243 C 238.958 55.582,230.855 56.000,226.700 60.213 C 225.875 61.049,225.130 61.658,225.044 61.567 C 224.958 61.475,224.150 59.810,223.247 57.867 C 216.786 43.957,205.803 36.880,195.200 39.794 M158.175 50.500 L 157.000 51.800 158.300 50.625 C 159.015 49.979,159.600 49.394,159.600 49.325 C 159.600 49.016,159.270 49.288,158.175 50.500 M240.400 49.325 C 240.400 49.394,240.985 49.979,241.700 50.625 L 243.000 51.800 241.825 50.500 C 240.730 49.288,240.400 49.016,240.400 49.325 M203.081 222.856 C 206.218 224.135,206.862 224.552,208.465 226.338 C 210.605 228.722,211.406 231.187,211.043 234.270 C 210.874 235.714,210.985 237.272,211.364 238.743 C 212.383 242.705,212.748 244.524,213.179 247.800 C 213.410 249.560,213.898 253.070,214.264 255.600 C 214.629 258.130,214.928 261.550,214.928 263.200 C 214.928 264.850,214.629 268.270,214.264 270.800 C 213.898 273.330,213.410 276.840,213.179 278.600 C 212.748 281.876,212.383 283.695,211.364 287.657 C 210.985 289.128,210.874 290.686,211.043 292.130 C 211.770 298.315,206.482 304.000,200.000 304.000 C 196.835 304.000,193.803 302.590,191.535 300.062 C 189.434 297.720,188.594 295.198,188.941 292.272 C 189.095 290.971,188.959 289.233,188.576 287.600 C 187.389 282.550,187.238 281.769,186.833 278.600 C 186.607 276.840,186.118 273.330,185.745 270.800 C 184.890 264.998,184.890 261.402,185.745 255.600 C 186.118 253.070,186.607 249.560,186.833 247.800 C 187.251 244.534,187.609 242.736,188.636 238.743 C 189.015 237.272,189.126 235.714,188.957 234.270 C 188.474 230.163,191.043 225.369,194.535 223.856 C 195.231 223.555,196.250 223.116,196.800 222.881 C 198.145 222.307,201.699 222.293,203.081 222.856 M166.227 282.023 C 186.222 285.589,193.983 309.530,179.757 323.757 C 167.849 335.664,147.498 332.235,140.184 317.088 C 131.629 299.371,147.053 278.604,166.227 282.023 M241.427 282.017 C 266.358 286.400,269.648 320.735,245.976 329.490 C 232.931 334.316,219.718 327.874,214.082 313.940 C 207.599 297.910,223.858 278.929,241.427 282.017 M149.505 293.483 C 150.002 293.579,150.722 293.575,151.105 293.475 C 151.487 293.375,151.080 293.296,150.200 293.301 C 149.320 293.305,149.007 293.387,149.505 293.483 M224.705 293.483 C 225.202 293.579,225.922 293.575,226.305 293.475 C 226.687 293.375,226.280 293.296,225.400 293.301 C 224.520 293.305,224.207 293.387,224.705 293.483 M140.893 302.800 C 140.893 303.570,140.975 303.885,141.076 303.500 C 141.176 303.115,141.176 302.485,141.076 302.100 C 140.975 301.715,140.893 302.030,140.893 302.800 M216.093 302.800 C 216.093 303.570,216.175 303.885,216.276 303.500 C 216.376 303.115,216.376 302.485,216.276 302.100 C 216.175 301.715,216.093 302.030,216.093 302.800 M159.246 304.867 C 159.221 305.234,159.096 305.864,158.970 306.267 C 158.752 306.962,158.763 306.963,159.197 306.287 C 159.448 305.896,159.573 305.266,159.473 304.887 C 159.311 304.268,159.288 304.266,159.246 304.867 M234.446 304.867 C 234.421 305.234,234.296 305.864,234.170 306.267 C 233.952 306.962,233.963 306.963,234.397 306.287 C 234.648 305.896,234.773 305.266,234.673 304.887 C 234.511 304.268,234.488 304.266,234.446 304.867 M156.575 309.700 L 155.400 311.000 156.700 309.825 C 157.415 309.179,158.000 308.594,158.000 308.525 C 158.000 308.216,157.670 308.488,156.575 309.700 M231.775 309.700 L 230.600 311.000 231.900 309.825 C 232.615 309.179,233.200 308.594,233.200 308.525 C 233.200 308.216,232.870 308.488,231.775 309.700 M147.683 312.060 C 147.967 312.240,149.190 312.376,150.400 312.362 C 153.058 312.332,152.642 312.121,149.483 311.896 C 148.189 311.804,147.394 311.876,147.683 312.060 M222.883 312.060 C 223.167 312.240,224.390 312.376,225.600 312.362 C 228.258 312.332,227.842 312.121,224.683 311.896 C 223.389 311.804,222.594 311.876,222.883 312.060 M185.571 340.831 C 182.960 343.626,183.062 348.911,185.723 348.746 C 186.578 348.692,186.577 348.687,185.678 348.515 C 183.078 348.018,184.101 341.461,187.000 340.045 C 187.444 339.828,187.560 339.642,187.260 339.627 C 186.964 339.612,186.203 340.154,185.571 340.831 M189.038 340.709 C 189.461 341.587,189.591 342.573,189.435 343.709 C 189.270 344.910,189.310 345.168,189.573 344.600 C 190.205 343.235,190.041 341.337,189.204 340.344 L 188.408 339.400 189.038 340.709 M210.623 340.489 C 209.939 341.465,209.849 343.352,210.427 344.600 C 210.690 345.168,210.730 344.910,210.565 343.709 C 210.411 342.588,210.536 341.610,210.936 340.809 C 211.646 339.385,211.500 339.236,210.623 340.489 M213.000 340.045 C 215.899 341.461,216.922 348.018,214.322 348.515 C 213.423 348.687,213.422 348.692,214.277 348.746 C 216.938 348.911,217.040 343.626,214.429 340.831 C 213.797 340.154,213.036 339.612,212.740 339.627 C 212.440 339.642,212.556 339.828,213.000 340.045 M187.826 347.100 C 186.962 348.205,186.893 348.390,187.563 347.804 C 188.365 347.104,189.423 345.600,189.114 345.600 C 189.051 345.600,188.472 346.275,187.826 347.100 M211.114 346.204 C 211.341 346.647,211.948 347.366,212.463 347.802 C 213.367 348.566,213.365 348.552,212.406 347.397 C 210.813 345.479,210.679 345.355,211.114 346.204 " stroke="none" fill="#292929" fill-rule="evenodd"></path><path id="path2" d="M194.743 26.408 C 194.381 26.619,193.751 26.843,193.343 26.906 C 188.480 27.650,180.549 35.032,177.466 41.683 C 176.699 43.337,176.179 43.814,175.804 43.207 C 175.479 42.681,170.924 42.675,170.600 43.200 C 170.464 43.420,170.001 43.600,169.572 43.600 C 166.776 43.600,160.423 48.215,156.400 53.170 C 155.630 54.118,154.775 55.130,154.500 55.418 C 154.225 55.707,154.000 56.121,154.000 56.338 C 154.000 56.555,153.865 56.793,153.700 56.867 C 153.321 57.035,151.881 59.600,152.166 59.600 C 152.281 59.600,153.399 59.132,154.649 58.560 C 162.093 55.155,168.769 55.444,173.101 59.358 C 174.653 60.760,175.600 60.747,175.600 59.324 C 175.600 59.040,176.317 57.437,177.194 55.762 C 189.344 32.559,212.419 33.376,223.625 57.406 L 225.236 60.860 226.850 59.402 C 231.233 55.442,237.873 55.140,245.351 58.560 C 246.601 59.132,247.719 59.600,247.834 59.600 C 248.119 59.600,246.679 57.035,246.300 56.867 C 246.135 56.793,246.000 56.555,246.000 56.338 C 246.000 56.121,245.775 55.707,245.500 55.418 C 245.225 55.130,244.370 54.118,243.600 53.170 C 239.577 48.215,233.224 43.600,230.428 43.600 C 229.999 43.600,229.536 43.420,229.400 43.200 C 229.076 42.675,224.521 42.681,224.196 43.207 C 223.821 43.814,223.301 43.337,222.534 41.683 C 219.611 35.376,211.513 27.611,207.400 27.170 C 207.180 27.146,206.393 26.874,205.651 26.564 C 204.089 25.911,195.796 25.793,194.743 26.408 M159.293 302.800 C 159.293 303.570,159.375 303.885,159.476 303.500 C 159.576 303.115,159.576 302.485,159.476 302.100 C 159.375 301.715,159.293 302.030,159.293 302.800 M234.493 302.800 C 234.493 303.570,234.575 303.885,234.676 303.500 C 234.776 303.115,234.776 302.485,234.676 302.100 C 234.575 301.715,234.493 302.030,234.493 302.800 M186.981 328.900 L 185.400 330.600 187.100 329.019 C 188.681 327.548,188.984 327.200,188.681 327.200 C 188.616 327.200,187.851 327.965,186.981 328.900 M213.000 329.200 C 214.083 330.300,215.060 331.200,215.170 331.200 C 215.280 331.200,214.483 330.300,213.400 329.200 C 212.317 328.100,211.340 327.200,211.230 327.200 C 211.120 327.200,211.917 328.100,213.000 329.200 " stroke="none" fill="#4c4c4b" fill-rule="evenodd"></path><path id="path3" d="M183.074 32.674 C 182.047 33.700,181.269 34.602,181.344 34.677 C 181.419 34.752,182.321 33.974,183.347 32.947 C 184.374 31.921,185.152 31.019,185.077 30.944 C 185.002 30.869,184.100 31.647,183.074 32.674 M214.800 30.878 C 214.800 31.159,218.486 34.848,218.626 34.707 C 218.684 34.648,218.330 34.150,217.838 33.600 C 216.634 32.253,214.800 30.609,214.800 30.878 M160.229 48.229 C 159.805 48.538,159.536 48.869,159.630 48.963 C 159.724 49.057,160.148 48.881,160.571 48.571 C 160.995 48.262,161.264 47.931,161.170 47.837 C 161.076 47.743,160.652 47.919,160.229 48.229 M150.230 60.424 C 149.807 60.851,149.627 61.194,149.830 61.187 C 150.301 61.171,151.600 60.194,151.600 59.856 C 151.600 59.392,151.012 59.635,150.230 60.424 M248.400 59.856 C 248.400 60.196,249.700 61.171,250.175 61.187 C 250.382 61.194,250.164 60.840,249.692 60.400 C 248.811 59.579,248.400 59.406,248.400 59.856 M148.100 61.798 C 147.357 62.642,147.494 62.873,148.400 62.307 C 148.840 62.032,149.200 61.671,149.200 61.504 C 149.200 61.027,148.649 61.175,148.100 61.798 M250.800 61.504 C 250.800 61.671,251.160 62.032,251.600 62.307 C 252.530 62.888,252.654 62.597,251.829 61.771 C 251.198 61.141,250.800 61.037,250.800 61.504 M146.230 63.324 C 145.010 64.079,140.685 68.463,139.643 70.000 C 139.055 70.868,139.512 70.513,140.847 69.066 C 142.031 67.782,143.990 65.851,145.200 64.775 C 147.400 62.818,147.677 62.428,146.230 63.324 M254.800 64.740 C 256.010 65.835,257.969 67.782,259.153 69.066 C 260.488 70.513,260.945 70.868,260.357 70.000 C 259.163 68.238,254.859 63.972,253.571 63.274 C 253.037 62.985,253.590 63.644,254.800 64.740 M137.671 72.229 C 137.380 72.558,137.200 72.985,137.271 73.177 C 137.342 73.369,137.723 73.093,138.119 72.563 C 138.897 71.520,138.536 71.250,137.671 72.229 M261.873 72.655 C 262.253 73.235,262.631 73.506,262.714 73.258 C 262.797 73.010,262.593 72.536,262.261 72.204 C 261.316 71.259,261.113 71.495,261.873 72.655 M135.260 75.442 C 134.962 75.778,134.799 76.132,134.895 76.229 C 134.992 76.326,135.398 76.044,135.798 75.602 C 136.197 75.161,136.361 74.807,136.162 74.815 C 135.963 74.824,135.557 75.105,135.260 75.442 M264.202 75.602 C 264.602 76.044,265.011 76.322,265.112 76.221 C 265.328 76.005,264.188 74.800,263.767 74.800 C 263.607 74.800,263.803 75.161,264.202 75.602 M129.029 79.409 C 128.605 79.729,128.338 80.071,128.435 80.169 C 128.532 80.266,129.059 80.002,129.606 79.582 C 130.153 79.161,130.420 78.820,130.200 78.822 C 129.980 78.824,129.453 79.088,129.029 79.409 M270.394 79.582 C 270.941 80.002,271.468 80.266,271.565 80.169 C 271.791 79.942,270.329 78.827,269.800 78.822 C 269.580 78.820,269.847 79.161,270.394 79.582 M126.900 80.944 C 126.405 81.189,126.000 81.527,126.000 81.695 C 126.000 82.248,126.664 82.013,127.400 81.200 C 128.201 80.315,128.186 80.307,126.900 80.944 M272.700 81.278 C 273.183 81.761,273.705 82.029,273.860 81.874 C 274.015 81.719,273.795 81.329,273.371 81.009 C 272.181 80.109,271.717 80.295,272.700 81.278 M122.460 83.442 C 121.648 84.359,122.071 84.436,123.144 83.566 C 123.683 83.129,123.855 82.807,123.544 82.815 C 123.245 82.824,122.757 83.105,122.460 83.442 M276.856 83.566 C 277.375 83.987,277.866 84.265,277.948 84.185 C 278.189 83.945,276.897 82.800,276.384 82.800 C 276.124 82.800,276.336 83.145,276.856 83.566 M115.194 84.382 C 115.741 84.802,116.257 85.076,116.342 84.992 C 116.604 84.729,115.286 83.600,114.729 83.609 C 114.438 83.614,114.647 83.961,115.194 84.382 M284.060 84.242 C 283.245 85.163,283.682 85.245,284.806 84.382 C 285.456 83.882,285.592 83.620,285.200 83.624 C 284.870 83.628,284.357 83.905,284.060 84.242 M105.400 86.957 C 103.959 88.486,102.584 90.400,102.926 90.400 C 102.998 90.400,104.092 89.230,105.355 87.800 C 107.895 84.925,107.930 84.271,105.400 86.957 M119.660 86.251 C 119.143 86.802,118.796 87.329,118.889 87.422 C 118.982 87.515,119.574 87.054,120.204 86.396 C 120.834 85.738,121.181 85.211,120.975 85.224 C 120.769 85.238,120.177 85.700,119.660 86.251 M279.796 86.396 C 280.426 87.054,281.019 87.514,281.113 87.420 C 281.322 87.212,279.356 85.200,278.943 85.200 C 278.782 85.200,279.166 85.738,279.796 86.396 M294.645 87.800 C 295.908 89.230,297.002 90.400,297.074 90.400 C 297.441 90.400,296.005 88.455,294.511 86.927 C 291.962 84.321,292.044 84.855,294.645 87.800 M100.505 92.708 C 100.013 93.308,99.608 93.971,99.605 94.180 C 99.602 94.420,99.713 94.420,99.906 94.180 C 100.074 93.971,100.646 93.305,101.176 92.700 C 101.706 92.095,101.973 91.603,101.770 91.608 C 101.566 91.612,100.997 92.107,100.505 92.708 M298.824 92.700 C 299.354 93.305,299.926 93.971,300.094 94.180 C 300.287 94.420,300.400 94.420,300.400 94.180 C 300.399 93.688,298.606 91.600,298.184 91.600 C 298.006 91.600,298.294 92.095,298.824 92.700 M97.671 96.229 C 97.380 96.558,97.209 97.026,97.289 97.268 C 97.370 97.511,97.747 97.235,98.127 96.655 C 98.866 95.528,98.550 95.234,97.671 96.229 M301.873 96.655 C 302.253 97.235,302.631 97.506,302.714 97.258 C 302.797 97.010,302.593 96.536,302.261 96.204 C 301.316 95.259,301.113 95.495,301.873 96.655 M95.296 99.595 C 94.544 100.798,94.702 101.056,95.600 100.092 C 96.447 99.183,96.594 98.800,96.096 98.800 C 95.929 98.800,95.569 99.158,95.296 99.595 M303.600 99.138 C 303.600 99.324,303.960 99.802,304.400 100.200 C 305.300 101.014,305.455 100.569,304.643 99.500 C 304.075 98.751,303.600 98.586,303.600 99.138 M93.669 102.039 C 92.910 103.254,93.366 103.416,94.155 102.212 C 94.520 101.656,94.678 101.200,94.505 101.200 C 94.333 101.200,93.957 101.578,93.669 102.039 M305.845 102.212 C 306.210 102.769,306.586 103.147,306.682 103.051 C 306.919 102.814,305.884 101.200,305.495 101.200 C 305.322 101.200,305.480 101.656,305.845 102.212 M92.069 104.439 C 91.310 105.654,91.766 105.816,92.555 104.612 C 92.920 104.056,93.078 103.600,92.905 103.600 C 92.733 103.600,92.357 103.978,92.069 104.439 M307.445 104.612 C 307.810 105.169,308.186 105.547,308.282 105.451 C 308.519 105.214,307.484 103.600,307.095 103.600 C 306.922 103.600,307.080 104.056,307.445 104.612 M87.269 112.439 C 86.510 113.654,86.966 113.816,87.755 112.612 C 88.120 112.056,88.278 111.600,88.105 111.600 C 87.933 111.600,87.557 111.978,87.269 112.439 M312.245 112.612 C 312.610 113.169,312.986 113.547,313.082 113.451 C 313.319 113.214,312.284 111.600,311.895 111.600 C 311.722 111.600,311.880 112.056,312.245 112.612 M76.406 134.100 C 76.411 134.828,76.486 134.885,76.800 134.400 C 77.301 133.624,77.301 133.200,76.800 133.200 C 76.580 133.200,76.403 133.605,76.406 134.100 M322.806 133.500 C 322.824 134.377,323.588 134.959,323.594 134.100 C 323.597 133.605,323.420 133.200,323.200 133.200 C 322.980 133.200,322.803 133.335,322.806 133.500 M60.869 170.039 C 60.110 171.254,60.566 171.416,61.355 170.212 C 61.720 169.656,61.878 169.200,61.705 169.200 C 61.533 169.200,61.157 169.578,60.869 170.039 M338.645 170.212 C 339.010 170.769,339.386 171.147,339.482 171.051 C 339.719 170.814,338.684 169.200,338.295 169.200 C 338.122 169.200,338.280 169.656,338.645 170.212 M69.693 266.000 C 69.968 266.440,70.331 266.800,70.500 266.800 C 70.669 266.800,70.582 266.440,70.307 266.000 C 70.032 265.560,69.669 265.200,69.500 265.200 C 69.331 265.200,69.418 265.560,69.693 266.000 M329.693 266.000 C 329.418 266.440,329.331 266.800,329.500 266.800 C 329.669 266.800,330.032 266.440,330.307 266.000 C 330.582 265.560,330.669 265.200,330.500 265.200 C 330.331 265.200,329.968 265.560,329.693 266.000 M72.400 269.429 C 72.400 269.727,73.475 270.800,73.775 270.800 C 73.902 270.800,73.782 270.440,73.507 270.000 C 73.038 269.249,72.400 268.920,72.400 269.429 M326.493 270.000 C 326.218 270.440,326.098 270.800,326.225 270.800 C 326.525 270.800,327.600 269.727,327.600 269.429 C 327.600 268.920,326.962 269.249,326.493 270.000 M82.000 278.984 C 82.000 279.416,84.116 281.218,84.349 280.984 C 84.451 280.883,84.458 280.755,84.367 280.700 C 84.275 280.645,83.705 280.164,83.100 279.630 C 82.495 279.097,82.000 278.806,82.000 278.984 M316.654 279.855 C 316.023 280.397,315.581 280.915,315.671 281.004 C 315.761 281.094,316.351 280.724,316.982 280.182 C 317.613 279.640,318.055 279.122,317.965 279.032 C 317.874 278.942,317.284 279.312,316.654 279.855 M158.200 282.036 C 141.662 285.715,133.089 302.395,140.184 317.088 C 150.754 338.979,182.905 333.759,186.808 309.519 C 189.340 293.788,173.552 278.621,158.200 282.036 M232.432 282.242 C 218.387 285.313,209.037 301.465,214.082 313.940 C 224.191 338.933,258.174 335.642,261.987 309.300 C 264.344 293.018,248.690 278.687,232.432 282.242 M86.000 282.225 C 86.000 282.525,87.073 283.600,87.371 283.600 C 87.880 283.600,87.551 282.962,86.800 282.493 C 86.360 282.218,86.000 282.098,86.000 282.225 M313.029 282.629 C 312.605 282.938,312.372 283.305,312.510 283.443 C 312.649 283.582,313.062 283.395,313.429 283.029 C 314.291 282.166,314.025 281.900,313.029 282.629 M91.612 286.212 C 91.605 286.438,91.960 286.883,92.400 287.200 C 92.840 287.517,93.200 287.993,93.200 288.258 C 93.200 288.522,94.460 290.014,96.000 291.572 C 97.540 293.131,98.800 294.544,98.800 294.712 C 98.800 295.100,104.917 301.200,105.306 301.200 C 105.465 301.200,106.869 302.460,108.428 304.000 C 109.986 305.540,111.427 306.800,111.630 306.800 C 111.833 306.800,112.741 307.520,113.648 308.400 C 114.555 309.280,115.500 309.999,115.748 309.998 C 116.279 309.996,114.867 308.666,111.000 305.527 C 107.608 302.774,100.374 295.703,96.751 291.600 C 95.294 289.950,93.544 287.970,92.862 287.200 C 92.181 286.430,91.618 285.985,91.612 286.212 M306.166 288.290 C 301.203 294.174,293.895 301.505,289.000 305.509 C 285.103 308.697,283.726 309.996,284.241 309.998 C 284.483 309.999,285.203 309.503,285.841 308.896 C 286.478 308.288,287.621 307.350,288.381 306.811 C 291.950 304.276,306.800 289.344,306.800 288.289 C 306.800 288.072,307.189 287.557,307.664 287.144 C 308.139 286.732,308.435 286.302,308.321 286.188 C 308.207 286.074,307.237 287.020,306.166 288.290 M152.554 293.673 C 163.300 296.757,161.281 312.400,150.136 312.400 C 141.253 312.400,137.591 300.078,145.013 295.162 C 147.926 293.232,149.759 292.870,152.554 293.673 M227.754 293.673 C 238.500 296.757,236.481 312.400,225.336 312.400 C 216.453 312.400,212.791 300.078,220.213 295.162 C 223.126 293.232,224.959 292.870,227.754 293.673 M116.400 310.262 C 116.400 310.641,118.549 312.399,119.012 312.400 C 119.238 312.400,119.683 312.760,120.000 313.200 C 120.317 313.640,120.831 314.000,121.141 314.000 C 121.452 314.000,122.034 314.378,122.434 314.840 C 122.835 315.301,123.358 315.614,123.597 315.534 C 123.837 315.454,123.102 314.680,121.965 313.812 C 119.374 311.836,116.400 309.939,116.400 310.262 M280.958 311.744 C 277.370 314.177,275.701 315.590,276.412 315.596 C 276.748 315.598,277.283 315.240,277.600 314.800 C 277.917 314.360,278.457 314.000,278.800 314.000 C 279.143 314.000,279.683 313.640,280.000 313.200 C 280.317 312.760,280.762 312.400,280.988 312.400 C 281.484 312.399,283.799 310.461,283.565 310.242 C 283.474 310.158,282.301 310.834,280.958 311.744 M124.400 315.819 C 124.400 316.305,125.623 317.259,126.058 317.114 C 126.306 317.031,126.035 316.653,125.455 316.273 C 124.875 315.893,124.400 315.689,124.400 315.819 M274.072 316.444 C 273.342 316.819,272.428 317.413,272.040 317.764 C 271.652 318.115,271.260 318.335,271.168 318.252 C 271.075 318.170,270.654 318.440,270.230 318.852 C 269.551 319.512,269.539 319.600,270.130 319.600 C 270.499 319.600,270.800 319.420,270.800 319.200 C 270.800 318.980,271.120 318.800,271.512 318.800 C 271.903 318.800,272.483 318.440,272.800 318.000 C 273.117 317.560,273.620 317.200,273.917 317.200 C 274.447 317.200,275.837 316.059,275.548 315.862 C 275.466 315.806,274.803 316.068,274.072 316.444 M126.800 317.159 C 126.800 317.855,127.819 318.800,128.571 318.800 C 128.917 318.800,129.200 318.980,129.200 319.200 C 129.200 319.420,129.501 319.600,129.870 319.600 C 130.461 319.600,130.449 319.512,129.770 318.852 C 129.346 318.440,128.923 318.172,128.830 318.255 C 128.736 318.339,128.241 318.014,127.730 317.534 C 127.188 317.025,126.800 316.869,126.800 317.159 M130.800 320.000 C 130.800 320.220,131.036 320.400,131.325 320.400 C 131.613 320.400,132.236 320.760,132.708 321.200 C 133.180 321.640,133.844 322.000,134.183 322.000 C 134.522 322.000,134.800 322.180,134.800 322.400 C 134.800 322.620,135.160 322.800,135.600 322.800 C 136.040 322.800,136.400 322.980,136.400 323.200 C 136.400 323.420,136.670 323.600,137.000 323.600 C 138.051 323.600,137.648 323.011,136.100 322.285 C 135.275 321.898,133.807 321.135,132.837 320.590 C 130.834 319.465,130.800 319.455,130.800 320.000 M267.000 320.630 C 266.120 321.150,264.725 321.893,263.900 322.282 C 262.352 323.012,261.950 323.600,263.000 323.600 C 263.330 323.600,263.600 323.420,263.600 323.200 C 263.600 322.980,263.960 322.800,264.400 322.800 C 264.840 322.800,265.200 322.620,265.200 322.400 C 265.200 322.180,265.560 322.000,266.000 322.000 C 266.440 322.000,266.800 321.864,266.800 321.698 C 266.800 321.531,267.340 321.156,268.000 320.864 C 268.660 320.572,269.200 320.168,269.200 319.966 C 269.200 319.443,268.810 319.561,267.000 320.630 M145.651 332.298 C 146.544 333.434,147.126 334.000,147.402 334.000 C 147.787 334.000,145.858 331.648,145.451 331.622 C 145.259 331.610,145.349 331.914,145.651 332.298 M253.270 332.822 C 252.357 333.978,252.401 334.485,253.329 333.498 C 254.360 332.401,254.880 331.601,254.549 331.622 C 254.357 331.634,253.781 332.174,253.270 332.822 M153.200 339.900 C 153.200 340.069,153.560 340.432,154.000 340.707 C 154.440 340.982,154.800 341.069,154.800 340.900 C 154.800 340.731,154.440 340.368,154.000 340.093 C 153.560 339.818,153.200 339.731,153.200 339.900 M187.000 340.046 C 184.056 341.479,183.030 348.400,185.761 348.400 C 188.080 348.400,190.329 343.407,189.124 340.934 C 188.515 339.684,188.101 339.511,187.000 340.046 M211.149 340.263 C 209.438 342.330,211.547 348.017,214.140 348.327 C 217.076 348.677,215.978 341.433,212.881 340.019 C 211.721 339.490,211.798 339.479,211.149 340.263 M245.829 340.229 C 245.405 340.538,245.136 340.869,245.230 340.963 C 245.324 341.057,245.748 340.881,246.171 340.571 C 246.595 340.262,246.864 339.931,246.770 339.837 C 246.676 339.743,246.252 339.919,245.829 340.229 " stroke="none" fill="#040404" fill-rule="evenodd"></path><path id="path4" d="M196.800 222.881 C 196.250 223.116,195.231 223.555,194.535 223.856 C 191.043 225.369,188.474 230.163,188.957 234.270 C 189.126 235.714,189.015 237.272,188.636 238.743 C 187.609 242.736,187.251 244.534,186.833 247.800 C 186.607 249.560,186.118 253.070,185.745 255.600 C 184.890 261.402,184.890 264.998,185.745 270.800 C 186.118 273.330,186.607 276.840,186.833 278.600 C 187.238 281.769,187.389 282.550,188.576 287.600 C 188.959 289.233,189.095 290.971,188.941 292.272 C 188.225 298.306,193.595 304.000,200.000 304.000 C 203.165 304.000,206.197 302.590,208.465 300.062 C 210.605 297.678,211.406 295.213,211.043 292.130 C 210.874 290.686,210.985 289.128,211.364 287.657 C 212.383 283.695,212.748 281.876,213.179 278.600 C 213.410 276.840,213.898 273.330,214.264 270.800 C 214.629 268.270,214.928 264.850,214.928 263.200 C 214.928 261.550,214.629 258.130,214.264 255.600 C 213.898 253.070,213.410 249.560,213.179 247.800 C 212.748 244.524,212.383 242.705,211.364 238.743 C 210.985 237.272,210.874 235.714,211.043 234.270 C 211.778 228.019,206.427 222.342,199.881 222.427 C 198.737 222.442,197.350 222.646,196.800 222.881 M172.844 350.084 C 172.628 350.652,172.215 351.196,171.926 351.293 C 171.497 351.437,171.492 351.727,171.900 352.863 C 172.175 353.630,172.400 354.651,172.400 355.134 C 172.400 355.616,172.557 356.323,172.750 356.705 C 172.942 357.087,173.451 358.120,173.880 359.000 C 174.309 359.880,174.917 361.042,175.230 361.583 C 176.070 363.032,181.591 368.400,182.241 368.400 C 182.548 368.400,182.800 368.536,182.800 368.702 C 182.800 368.869,183.385 369.240,184.100 369.529 C 184.815 369.817,185.713 370.221,186.095 370.426 C 192.363 373.799,186.154 361.856,176.842 352.626 C 173.262 349.078,173.233 349.060,172.844 350.084 M222.345 353.510 C 216.259 359.781,211.200 367.387,211.200 370.265 C 211.200 370.883,212.871 370.983,213.905 370.426 C 214.287 370.221,215.185 369.817,215.900 369.529 C 216.615 369.240,217.200 368.869,217.200 368.702 C 217.200 368.536,217.452 368.400,217.759 368.400 C 218.991 368.400,225.214 361.573,225.871 359.500 C 225.993 359.115,226.252 358.800,226.447 358.800 C 226.641 358.800,226.800 358.361,226.800 357.824 C 226.800 357.287,226.980 356.736,227.200 356.600 C 227.420 356.464,227.600 355.881,227.600 355.305 C 227.600 354.728,227.821 353.644,228.092 352.896 C 228.523 351.706,228.497 351.486,227.892 351.148 C 227.511 350.935,227.200 350.510,227.200 350.204 C 227.200 348.841,226.242 349.493,222.345 353.510 " stroke="none" fill="#4c140c" fill-rule="evenodd"></path><path id="path5" d="M198.400 322.103 C 197.850 322.349,196.590 322.910,195.600 323.349 C 192.464 324.740,189.300 327.124,185.378 331.053 C 182.201 334.235,181.062 335.095,178.486 336.257 C 170.873 339.690,169.600 340.577,169.600 342.451 C 169.600 343.057,169.787 343.668,170.016 343.810 C 170.284 343.976,170.343 343.712,170.182 343.071 C 169.731 341.274,170.644 340.479,176.257 337.780 C 181.445 335.285,181.879 334.980,186.355 330.676 C 191.358 325.865,197.197 322.267,200.000 322.267 C 202.803 322.267,208.642 325.865,213.645 330.676 C 218.121 334.980,218.555 335.285,223.743 337.780 C 229.356 340.479,230.269 341.274,229.818 343.071 C 229.657 343.712,229.716 343.976,229.984 343.810 C 230.671 343.385,230.454 341.409,229.622 340.515 C 228.849 339.686,227.444 338.949,221.514 336.263 C 218.945 335.099,217.790 334.226,214.622 331.053 C 208.041 324.461,201.360 320.775,198.400 322.103 M185.692 339.821 C 185.205 340.162,184.613 340.837,184.376 341.321 L 183.946 342.200 184.673 341.312 C 185.073 340.823,185.760 340.154,186.200 339.825 C 187.261 339.030,186.825 339.027,185.692 339.821 M213.800 339.768 C 214.240 340.129,214.937 340.823,215.349 341.312 L 216.098 342.200 215.520 341.229 C 215.202 340.695,214.505 340.001,213.971 339.686 C 213.045 339.139,213.037 339.143,213.800 339.768 M189.636 345.268 C 188.526 348.454,185.270 349.917,183.781 347.900 C 183.416 347.405,183.192 347.259,183.284 347.576 C 184.110 350.428,187.829 349.665,189.546 346.292 C 190.080 345.242,190.421 344.288,190.305 344.171 C 190.188 344.055,189.887 344.548,189.636 345.268 M209.850 344.800 C 210.866 349.009,215.732 350.976,216.716 347.576 C 216.808 347.259,216.584 347.405,216.219 347.900 C 214.725 349.925,211.762 348.587,210.238 345.200 C 209.852 344.342,209.702 344.187,209.850 344.800 M170.409 344.940 C 170.404 345.357,172.645 347.983,175.530 350.940 C 183.903 359.525,184.563 360.335,186.586 364.513 C 187.203 365.786,187.793 366.740,187.899 366.634 C 188.928 365.605,179.936 354.021,174.197 348.983 C 172.819 347.773,171.405 346.202,171.055 345.491 C 170.626 344.622,170.415 344.442,170.409 344.940 M228.880 345.565 C 228.594 346.209,227.222 347.737,225.829 348.960 C 220.067 354.018,211.069 365.602,212.101 366.634 C 212.207 366.740,212.797 365.786,213.412 364.513 C 215.225 360.763,216.532 359.111,222.722 352.742 C 228.945 346.340,229.738 345.413,229.529 344.787 C 229.457 344.571,229.165 344.921,228.880 345.565 M188.018 367.251 C 188.008 367.389,188.263 368.131,188.584 368.900 C 188.905 369.669,189.087 370.413,188.987 370.553 C 188.888 370.692,189.000 370.646,189.237 370.450 C 189.536 370.202,189.418 369.621,188.851 368.547 C 188.402 367.696,188.027 367.113,188.018 367.251 M211.055 368.655 C 210.676 369.449,210.453 370.186,210.559 370.293 C 210.666 370.399,211.036 369.809,211.382 368.982 C 212.198 367.029,211.949 366.780,211.055 368.655 " stroke="none" fill="#8c7424" fill-rule="evenodd"></path><path id="path6" d="M149.000 294.016 C 148.082 294.237,148.402 294.316,150.367 294.353 C 151.778 294.379,152.858 294.336,152.767 294.257 C 152.348 293.899,150.085 293.754,149.000 294.016 M224.200 294.016 C 223.282 294.237,223.602 294.316,225.567 294.353 C 226.978 294.379,228.058 294.336,227.967 294.257 C 227.548 293.899,225.285 293.754,224.200 294.016 M145.670 295.214 C 144.214 296.102,142.425 297.968,142.425 298.600 C 142.425 298.820,142.813 298.480,143.287 297.844 C 143.760 297.209,144.960 296.174,145.952 295.544 C 147.985 294.255,147.731 293.957,145.670 295.214 M154.600 295.368 C 156.427 296.464,157.814 298.183,158.601 300.323 C 158.983 301.363,159.152 301.547,159.172 300.945 C 159.232 299.125,155.083 294.390,153.441 294.404 C 153.198 294.406,153.720 294.840,154.600 295.368 M220.870 295.214 C 219.414 296.102,217.625 297.968,217.625 298.600 C 217.625 298.820,218.013 298.480,218.487 297.844 C 218.960 297.209,220.160 296.174,221.152 295.544 C 223.185 294.255,222.931 293.957,220.870 295.214 M229.800 295.368 C 231.627 296.464,233.014 298.183,233.801 300.323 C 234.183 301.363,234.352 301.547,234.372 300.945 C 234.432 299.125,230.283 294.390,228.641 294.404 C 228.398 294.406,228.920 294.840,229.800 295.368 M158.600 305.200 C 158.450 305.673,158.417 306.150,158.527 306.260 C 158.637 306.370,158.850 306.073,159.000 305.600 C 159.150 305.127,159.183 304.650,159.073 304.540 C 158.963 304.430,158.750 304.727,158.600 305.200 M233.800 305.200 C 233.650 305.673,233.617 306.150,233.727 306.260 C 233.837 306.370,234.050 306.073,234.200 305.600 C 234.350 305.127,234.383 304.650,234.273 304.540 C 234.163 304.430,233.950 304.727,233.800 305.200 M141.611 305.222 C 141.592 306.288,143.920 309.563,145.292 310.399 C 147.210 311.569,147.572 311.376,145.756 310.151 C 144.096 309.033,143.891 308.785,142.511 306.240 C 142.022 305.338,141.617 304.880,141.611 305.222 M216.811 305.222 C 216.792 306.288,219.120 309.563,220.492 310.399 C 222.410 311.569,222.772 311.376,220.956 310.151 C 219.296 309.033,219.091 308.785,217.711 306.240 C 217.222 305.338,216.817 304.880,216.811 305.222 M157.058 308.232 C 156.430 309.019,155.350 310.008,154.658 310.430 C 153.966 310.852,153.601 311.198,153.846 311.199 C 154.711 311.201,157.097 309.087,158.021 307.500 C 158.661 306.401,158.300 306.674,157.058 308.232 M232.258 308.232 C 231.630 309.019,230.550 310.008,229.858 310.430 C 229.166 310.852,228.801 311.198,229.046 311.199 C 229.911 311.201,232.297 309.087,233.221 307.500 C 233.861 306.401,233.500 306.674,232.258 308.232 M148.110 311.676 C 148.715 312.061,151.539 312.047,152.535 311.654 C 152.945 311.493,152.021 311.365,150.445 311.365 C 148.891 311.365,147.840 311.505,148.110 311.676 M223.310 311.676 C 223.915 312.061,226.739 312.047,227.735 311.654 C 228.145 311.493,227.221 311.365,225.645 311.365 C 224.091 311.365,223.040 311.505,223.310 311.676 " stroke="none" fill="#6c6c6c" fill-rule="evenodd"></path><path id="path7" d="M183.978 332.300 L 182.600 333.800 184.100 332.422 C 185.496 331.138,185.784 330.800,185.478 330.800 C 185.412 330.800,184.737 331.475,183.978 332.300 M215.600 332.200 C 216.346 332.970,217.047 333.600,217.157 333.600 C 217.267 333.600,216.746 332.970,216.000 332.200 C 215.254 331.430,214.553 330.800,214.443 330.800 C 214.333 330.800,214.854 331.430,215.600 332.200 M190.101 342.600 C 190.105 343.480,190.187 343.793,190.283 343.295 C 190.379 342.798,190.375 342.078,190.275 341.695 C 190.175 341.313,190.096 341.720,190.101 342.600 M209.701 342.600 C 209.705 343.480,209.787 343.793,209.883 343.295 C 209.979 342.798,209.975 342.078,209.875 341.695 C 209.775 341.313,209.696 341.720,209.701 342.600 M175.800 351.600 C 178.433 354.240,180.677 356.400,180.787 356.400 C 180.897 356.400,178.833 354.240,176.200 351.600 C 173.567 348.960,171.323 346.800,171.213 346.800 C 171.103 346.800,173.167 348.960,175.800 351.600 M223.800 351.600 C 221.167 354.240,219.103 356.400,219.213 356.400 C 219.323 356.400,221.567 354.240,224.200 351.600 C 226.833 348.960,228.897 346.800,228.787 346.800 C 228.677 346.800,226.433 348.960,223.800 351.600 M217.400 358.325 C 216.145 359.789,214.781 361.691,215.482 361.000 C 216.717 359.782,218.890 357.161,218.756 357.052 C 218.670 356.982,218.060 357.555,217.400 358.325 M183.008 359.300 C 183.867 360.345,184.634 361.200,184.712 361.200 C 184.998 361.200,183.261 358.978,182.366 358.200 C 181.860 357.760,182.149 358.255,183.008 359.300 M186.278 364.595 C 186.644 365.362,187.014 365.919,187.101 365.832 C 187.284 365.649,186.070 363.200,185.796 363.200 C 185.695 363.200,185.912 363.828,186.278 364.595 M213.381 364.437 C 213.029 365.118,212.812 365.745,212.899 365.832 C 212.986 365.919,213.356 365.362,213.722 364.595 C 214.544 362.870,214.259 362.738,213.381 364.437 " stroke="none" fill="#80612a" fill-rule="evenodd"></path><path id="path8" d="M194.972 39.352 C 190.110 40.689,184.179 45.164,180.575 50.214 C 178.637 52.930,175.600 58.491,175.600 59.324 C 175.600 60.747,174.653 60.760,173.101 59.358 C 168.769 55.444,162.093 55.155,154.649 58.560 C 152.090 59.731,151.834 59.792,152.238 59.138 C 152.416 58.850,152.348 58.785,152.055 58.966 C 150.373 60.006,152.750 60.239,154.576 59.213 C 161.040 55.583,169.160 56.016,173.300 60.213 C 174.125 61.049,174.870 61.658,174.956 61.567 C 175.042 61.475,175.837 59.839,176.723 57.930 C 188.314 32.973,211.670 32.941,223.247 57.867 C 224.150 59.810,224.958 61.475,225.044 61.567 C 225.130 61.658,225.875 61.049,226.700 60.213 C 230.840 56.016,238.960 55.583,245.424 59.213 C 247.250 60.239,249.627 60.006,247.945 58.966 C 247.652 58.785,247.584 58.850,247.762 59.138 C 248.166 59.792,247.910 59.731,245.351 58.560 C 237.873 55.140,231.233 55.442,226.850 59.402 L 225.236 60.860 223.625 57.406 C 217.273 43.783,205.601 36.429,194.972 39.352 M191.200 324.882 C 190.210 325.567,187.789 327.740,185.820 329.711 C 183.851 331.682,181.556 333.747,180.720 334.300 C 178.883 335.516,178.708 335.929,180.455 334.923 C 181.145 334.525,183.558 332.373,185.817 330.139 C 188.075 327.906,190.751 325.594,191.762 325.001 C 192.773 324.409,193.600 323.851,193.600 323.762 C 193.600 323.381,192.888 323.714,191.200 324.882 M206.400 323.762 C 206.400 323.851,207.165 324.375,208.100 324.926 C 209.035 325.477,210.970 326.959,212.400 328.221 L 215.000 330.514 212.800 328.330 C 210.158 325.709,206.400 323.026,206.400 323.762 M215.200 331.148 C 215.200 331.344,215.965 332.126,216.900 332.886 C 218.860 334.480,220.800 335.780,220.800 335.499 C 220.800 335.393,220.125 334.855,219.300 334.304 C 218.475 333.753,217.215 332.738,216.500 332.048 C 215.785 331.358,215.200 330.953,215.200 331.148 M170.000 345.937 C 170.000 346.356,172.776 349.358,172.977 349.156 C 173.066 349.068,172.432 348.238,171.569 347.313 C 170.706 346.388,170.000 345.769,170.000 345.937 M228.248 347.438 C 227.394 348.407,226.830 349.200,226.994 349.200 C 227.380 349.200,230.000 346.343,230.000 345.922 C 230.000 345.459,229.958 345.496,228.248 347.438 " stroke="none" fill="#444444" fill-rule="evenodd"></path></g></svg>