<svg id="svg" version="1.1" xmlns="http://www.w3.org/2000/svg" xmlns:xlink="http://www.w3.org/1999/xlink" width="400" height="400" viewBox="0, 0, 400,400"><g id="svgg"><path id="path0" d="M197.400 19.200 C 197.264 19.420,196.881 19.600,196.548 19.600 C 195.755 19.600,190.800 24.587,190.800 25.384 C 190.800 25.723,190.620 26.000,190.400 26.000 C 190.180 26.000,189.996 26.225,189.991 26.500 C 189.986 26.775,189.642 27.442,189.227 27.982 C 188.563 28.846,188.545 29.018,189.075 29.406 C 190.934 30.765,184.075 41.068,175.768 49.393 C 170.957 54.214,170.010 55.641,170.002 58.080 C 169.999 59.120,172.166 60.543,176.968 62.654 C 181.128 64.483,181.576 64.803,186.390 69.387 C 191.905 74.638,197.003 77.782,200.000 77.782 C 202.997 77.782,208.095 74.638,213.610 69.387 C 218.424 64.803,218.872 64.483,223.032 62.654 C 227.834 60.543,230.001 59.120,229.998 58.080 C 229.990 55.641,229.043 54.214,224.232 49.393 C 215.925 41.068,209.066 30.765,210.925 29.406 C 211.455 29.018,211.437 28.846,210.773 27.982 C 210.358 27.442,210.014 26.775,210.009 26.500 C 210.004 26.225,209.820 26.000,209.600 26.000 C 209.380 26.000,209.200 25.723,209.200 25.384 C 209.200 24.573,204.238 19.600,203.429 19.600 C 203.083 19.600,202.800 19.420,202.800 19.200 C 202.800 18.975,201.675 18.800,200.224 18.800 C 198.807 18.800,197.536 18.980,197.400 19.200 M187.984 51.848 C 190.997 54.383,191.330 60.070,188.518 60.962 C 186.135 61.719,183.200 58.095,183.200 54.396 C 183.200 50.839,185.395 49.670,187.984 51.848 M216.069 51.462 C 217.218 52.502,217.069 56.071,215.784 58.263 C 213.408 62.318,209.643 61.883,209.613 57.549 C 209.581 52.958,213.568 49.199,216.069 51.462 M172.800 89.063 C 169.891 89.596,167.598 91.644,166.556 94.637 C 164.043 101.857,172.628 108.230,179.032 103.900 C 186.494 98.855,181.696 87.432,172.800 89.063 M248.000 89.063 C 245.091 89.596,242.798 91.644,241.756 94.637 C 239.243 101.857,247.828 108.230,254.232 103.900 C 261.694 98.855,256.896 87.432,248.000 89.063 " stroke="none" fill="#f1d742" fill-rule="evenodd"></path><path id="path1" d="M170.654 49.402 C 170.024 49.731,169.259 50.000,168.954 50.000 C 168.649 50.000,168.400 50.180,168.400 50.400 C 168.400 50.620,168.040 50.800,167.600 50.800 C 167.160 50.800,166.800 50.938,166.800 51.106 C 166.800 51.274,166.125 51.718,165.300 52.094 C 163.384 52.965,161.648 54.011,160.642 54.900 C 160.206 55.285,159.653 55.600,159.413 55.600 C 159.173 55.600,158.717 55.960,158.400 56.400 C 158.083 56.840,157.636 57.200,157.407 57.200 C 156.162 57.200,146.369 66.864,143.597 70.829 C 143.070 71.583,142.540 72.290,142.419 72.400 C 142.299 72.510,141.900 73.140,141.534 73.800 C 141.167 74.460,140.177 75.360,139.334 75.800 C 138.490 76.240,137.710 76.690,137.600 76.800 C 137.368 77.032,135.239 78.190,131.700 80.008 C 130.325 80.715,129.200 81.463,129.200 81.670 C 129.200 81.877,129.040 81.949,128.845 81.828 C 128.650 81.707,128.260 81.887,127.977 82.228 C 127.695 82.568,126.909 83.080,126.232 83.365 C 125.554 83.650,124.100 84.577,123.000 85.424 C 121.900 86.271,119.903 87.693,118.561 88.582 C 111.761 93.093,101.224 102.948,93.843 111.700 C 92.776 112.965,91.655 114.000,91.351 114.000 C 91.048 114.000,90.800 114.141,90.800 114.314 C 90.800 114.486,90.305 114.921,89.700 115.279 C 89.095 115.637,88.060 116.396,87.400 116.965 C 86.740 117.534,86.057 117.999,85.882 118.000 C 85.707 118.000,85.131 118.405,84.603 118.900 C 84.075 119.395,81.869 121.420,79.701 123.400 C 77.533 125.380,75.139 127.810,74.380 128.800 C 73.621 129.790,72.772 130.841,72.494 131.135 C 72.216 131.429,71.497 132.329,70.896 133.135 C 70.296 133.941,69.702 134.690,69.576 134.800 C 69.023 135.283,66.800 138.785,66.800 139.172 C 66.800 139.407,66.620 139.600,66.400 139.600 C 66.180 139.600,66.000 139.836,66.000 140.125 C 66.000 140.413,65.680 140.998,65.289 141.425 C 64.897 141.851,64.087 143.190,63.487 144.400 C 62.887 145.610,62.100 147.140,61.738 147.800 C 60.627 149.822,60.400 150.366,60.400 150.995 C 60.400 151.328,60.220 151.600,60.000 151.600 C 59.780 151.600,59.600 151.872,59.600 152.205 C 59.600 152.538,59.441 153.123,59.247 153.505 C 59.052 153.887,58.671 154.740,58.400 155.400 C 58.129 156.060,57.748 156.913,57.553 157.295 C 57.359 157.677,57.200 158.341,57.200 158.771 C 57.200 159.201,57.020 159.664,56.800 159.800 C 56.580 159.936,56.400 160.489,56.400 161.029 C 56.400 161.569,56.238 162.323,56.039 162.705 C 55.840 163.087,55.468 164.210,55.212 165.200 C 54.956 166.190,54.578 167.553,54.373 168.228 C 54.168 168.904,54.000 170.018,54.000 170.705 C 54.000 171.391,53.820 172.064,53.600 172.200 C 53.380 172.336,53.200 173.416,53.200 174.600 C 53.200 175.784,53.020 176.864,52.800 177.000 C 52.254 177.338,52.254 204.262,52.800 204.600 C 53.020 204.736,53.200 205.816,53.200 207.000 C 53.200 208.184,53.380 209.264,53.600 209.400 C 53.820 209.536,54.000 210.436,54.000 211.400 C 54.000 212.364,54.180 213.264,54.400 213.400 C 54.620 213.536,54.800 214.166,54.800 214.800 C 54.800 215.434,54.980 216.064,55.200 216.200 C 55.420 216.336,55.600 216.876,55.600 217.400 C 55.600 217.924,55.780 218.464,56.000 218.600 C 56.220 218.736,56.400 219.199,56.400 219.629 C 56.400 220.059,56.557 220.723,56.750 221.105 C 58.147 223.878,58.800 225.329,58.800 225.660 C 58.800 225.871,59.481 227.069,60.314 228.322 C 62.020 230.888,63.548 233.980,64.800 237.400 C 65.122 238.279,65.649 239.608,66.346 241.300 C 66.596 241.905,66.980 242.850,67.200 243.400 C 67.420 243.950,67.804 244.895,68.054 245.500 C 68.303 246.105,68.663 247.005,68.854 247.500 C 69.908 250.240,70.538 251.740,72.000 255.000 C 72.691 256.540,73.404 258.160,73.586 258.600 C 73.767 259.040,74.543 260.750,75.311 262.400 C 76.079 264.050,77.203 266.480,77.810 267.800 C 79.695 271.899,85.572 283.708,86.669 285.600 C 87.243 286.590,88.031 287.960,88.419 288.645 C 89.867 291.201,90.264 291.831,93.000 295.928 C 94.540 298.234,95.980 300.412,96.200 300.768 C 97.790 303.339,104.584 311.570,108.855 316.100 C 110.966 318.339,115.223 316.861,116.831 313.331 C 117.758 311.297,118.118 311.402,121.103 314.584 C 122.040 315.582,123.660 316.798,124.703 317.287 C 125.747 317.775,127.500 318.854,128.600 319.685 C 129.700 320.516,130.810 321.197,131.067 321.198 C 131.323 321.199,131.593 321.360,131.667 321.556 C 131.740 321.751,132.610 322.362,133.600 322.912 C 134.818 323.590,136.274 325.059,138.102 327.457 C 140.882 331.103,144.587 334.907,147.400 337.003 C 148.280 337.659,149.090 338.287,149.200 338.398 C 149.310 338.510,149.895 338.856,150.500 339.168 C 151.105 339.480,151.600 339.868,151.600 340.030 C 151.600 340.192,151.931 340.239,152.335 340.133 C 152.739 340.027,153.724 340.308,154.523 340.757 C 161.042 344.418,169.145 344.000,173.300 339.787 C 174.125 338.951,174.870 338.342,174.956 338.433 C 175.042 338.525,175.850 340.190,176.753 342.133 C 188.330 367.059,211.686 367.027,223.277 342.070 C 224.163 340.161,224.958 338.525,225.044 338.433 C 225.130 338.342,225.875 338.951,226.700 339.787 C 230.855 344.000,238.958 344.418,245.477 340.757 C 246.276 340.308,247.261 340.027,247.665 340.133 C 248.069 340.239,248.400 340.192,248.400 340.030 C 248.400 339.868,248.895 339.480,249.500 339.168 C 250.105 338.856,250.690 338.511,250.800 338.401 C 250.910 338.290,251.810 337.577,252.800 336.816 C 256.082 334.292,258.471 331.844,261.623 327.778 C 263.918 324.818,265.223 323.508,266.570 322.815 C 267.577 322.298,268.400 321.723,268.400 321.537 C 268.400 321.352,268.625 321.199,268.900 321.198 C 269.175 321.197,270.300 320.516,271.400 319.685 C 272.500 318.854,274.253 317.775,275.297 317.287 C 276.340 316.798,277.960 315.582,278.897 314.584 C 281.896 311.387,282.239 311.291,283.192 313.383 C 284.158 315.503,286.694 317.200,288.897 317.200 C 290.592 317.200,303.600 302.721,303.600 300.835 C 303.600 300.632,303.754 300.407,303.941 300.333 C 304.129 300.260,305.524 298.295,307.041 295.968 C 309.753 291.807,310.169 291.136,311.581 288.645 C 311.969 287.960,312.753 286.590,313.322 285.600 C 314.457 283.626,320.441 271.619,322.192 267.800 C 322.798 266.480,323.921 264.050,324.689 262.400 C 325.457 260.750,326.222 259.040,326.389 258.600 C 326.557 258.160,327.275 256.540,327.985 255.000 C 328.695 253.460,329.439 251.795,329.638 251.300 C 329.837 250.805,330.180 249.950,330.400 249.400 C 330.620 248.850,331.004 247.905,331.254 247.300 C 331.503 246.695,331.863 245.795,332.054 245.300 C 332.244 244.805,332.580 243.950,332.800 243.400 C 333.020 242.850,333.380 241.950,333.600 241.400 C 333.820 240.850,334.156 239.995,334.346 239.500 C 334.688 238.612,335.108 237.555,335.896 235.600 C 336.922 233.052,338.298 230.409,339.686 228.322 C 340.519 227.069,341.200 225.859,341.200 225.634 C 341.200 225.409,341.560 224.583,342.000 223.800 C 342.440 223.017,342.800 222.109,342.800 221.782 C 342.800 221.456,342.980 220.832,343.200 220.395 C 343.420 219.958,343.780 219.242,344.000 218.805 C 344.220 218.368,344.400 217.659,344.400 217.229 C 344.400 216.799,344.580 216.336,344.800 216.200 C 345.020 216.064,345.200 215.434,345.200 214.800 C 345.200 214.166,345.380 213.536,345.600 213.400 C 345.820 213.264,346.000 212.364,346.000 211.400 C 346.000 210.436,346.180 209.536,346.400 209.400 C 346.620 209.264,346.800 208.184,346.800 207.000 C 346.800 205.816,346.980 204.736,347.200 204.600 C 347.746 204.262,347.746 177.338,347.200 177.000 C 346.980 176.864,346.800 175.784,346.800 174.600 C 346.800 173.416,346.620 172.336,346.400 172.200 C 346.180 172.064,346.000 171.391,346.000 170.705 C 346.000 170.018,345.832 168.904,345.627 168.228 C 345.422 167.553,345.044 166.190,344.788 165.200 C 344.532 164.210,344.160 163.087,343.961 162.705 C 343.762 162.323,343.600 161.569,343.600 161.029 C 343.600 160.489,343.420 159.936,343.200 159.800 C 342.980 159.664,342.800 159.201,342.800 158.771 C 342.800 158.341,342.641 157.677,342.447 157.295 C 342.252 156.913,341.871 156.060,341.600 155.400 C 341.329 154.740,340.948 153.887,340.753 153.505 C 340.559 153.123,340.400 152.538,340.400 152.205 C 340.400 151.872,340.220 151.600,340.000 151.600 C 339.780 151.600,339.600 151.328,339.600 150.995 C 339.600 150.366,339.373 149.822,338.262 147.800 C 337.900 147.140,337.113 145.610,336.513 144.400 C 335.913 143.190,335.103 141.851,334.711 141.425 C 334.320 140.998,334.000 140.413,334.000 140.125 C 334.000 139.836,333.820 139.600,333.600 139.600 C 333.380 139.600,333.200 139.364,333.200 139.075 C 333.200 138.787,332.840 138.164,332.400 137.692 C 331.960 137.220,331.600 136.680,331.600 136.492 C 331.600 136.304,331.285 135.802,330.900 135.375 C 330.515 134.948,329.708 133.940,329.106 133.134 C 328.504 132.329,327.784 131.429,327.506 131.135 C 327.228 130.841,326.379 129.790,325.620 128.800 C 324.861 127.810,322.467 125.380,320.299 123.400 C 318.131 121.420,315.925 119.395,315.397 118.900 C 314.869 118.405,314.293 118.000,314.118 118.000 C 313.943 117.999,313.260 117.534,312.600 116.965 C 311.940 116.396,310.905 115.637,310.300 115.279 C 309.695 114.921,309.200 114.486,309.200 114.314 C 309.200 114.141,308.952 114.000,308.649 114.000 C 308.345 114.000,307.226 112.965,306.161 111.700 C 298.825 102.988,288.627 93.477,280.963 88.200 C 279.366 87.100,276.966 85.428,275.629 84.485 C 274.293 83.542,273.200 82.898,273.200 83.055 C 273.200 83.211,272.750 82.917,272.200 82.400 C 271.650 81.883,271.197 81.627,271.194 81.830 C 271.191 82.034,271.048 81.981,270.878 81.713 C 270.596 81.269,267.594 79.535,264.000 77.741 C 263.230 77.356,262.510 76.942,262.400 76.821 C 262.290 76.699,261.510 76.240,260.666 75.800 C 259.823 75.360,258.833 74.460,258.466 73.800 C 258.100 73.140,257.701 72.510,257.581 72.400 C 257.460 72.290,256.930 71.583,256.403 70.829 C 253.631 66.864,243.838 57.200,242.593 57.200 C 242.364 57.200,241.917 56.840,241.600 56.400 C 241.283 55.960,240.827 55.600,240.587 55.600 C 240.347 55.600,239.794 55.285,239.358 54.900 C 238.352 54.011,236.616 52.965,234.700 52.094 C 233.875 51.718,233.200 51.274,233.200 51.106 C 233.200 50.938,232.840 50.800,232.400 50.800 C 231.960 50.800,231.600 50.620,231.600 50.400 C 231.600 50.180,231.276 50.000,230.880 50.000 C 230.484 50.000,229.989 49.840,229.780 49.645 C 227.462 47.480,226.173 49.886,228.449 52.131 C 229.402 53.072,230.000 54.035,230.000 54.631 C 230.000 55.164,230.180 55.600,230.400 55.600 C 230.620 55.600,230.800 56.434,230.800 57.453 C 230.800 59.573,229.981 60.515,226.829 62.021 C 225.823 62.501,224.308 63.233,223.462 63.647 C 222.616 64.061,221.749 64.400,221.534 64.400 C 220.667 64.400,217.208 67.167,214.000 70.427 C 210.450 74.035,208.354 75.603,205.000 77.159 C 203.900 77.670,202.687 78.248,202.305 78.444 C 201.409 78.903,198.591 78.903,197.695 78.444 C 197.313 78.248,196.100 77.670,195.000 77.159 C 191.646 75.603,189.550 74.035,186.000 70.427 C 182.792 67.167,179.333 64.400,178.466 64.400 C 178.251 64.400,177.384 64.061,176.538 63.647 C 175.692 63.233,174.177 62.501,173.171 62.021 C 170.019 60.515,169.200 59.573,169.200 57.453 C 169.200 56.434,169.380 55.600,169.600 55.600 C 169.820 55.600,170.000 55.164,170.000 54.631 C 170.000 54.035,170.598 53.072,171.551 52.131 C 173.802 49.910,173.199 48.075,170.654 49.402 M184.156 52.211 C 182.770 54.327,184.251 58.734,186.814 60.122 C 187.708 60.605,187.931 60.651,187.443 60.250 C 187.027 59.908,186.571 59.577,186.429 59.514 C 184.004 58.438,183.395 51.922,185.678 51.485 C 186.597 51.310,186.597 51.309,185.709 51.254 C 185.158 51.221,184.566 51.585,184.156 52.211 M214.322 51.485 C 216.605 51.922,215.996 58.438,213.571 59.514 C 213.429 59.577,212.973 59.908,212.557 60.250 C 212.069 60.651,212.292 60.605,213.186 60.122 C 216.691 58.225,217.585 51.053,214.291 51.254 C 213.403 51.309,213.403 51.310,214.322 51.485 M187.929 53.000 C 189.406 54.992,189.859 57.695,189.002 59.400 L 188.399 60.600 189.199 59.656 C 190.594 58.010,190.131 55.109,188.123 52.911 L 186.742 51.400 187.929 53.000 M211.671 53.040 C 209.844 55.257,209.472 58.088,210.801 59.656 L 211.601 60.600 210.998 59.400 C 210.134 57.682,210.591 54.974,212.061 53.100 C 213.565 51.182,213.243 51.133,211.671 53.040 M166.202 69.365 C 175.841 71.061,181.940 76.226,185.918 86.060 C 192.266 101.757,176.674 120.566,159.384 118.066 C 155.945 117.569,155.405 117.407,151.800 115.794 C 130.255 106.151,134.911 73.416,158.400 69.396 C 162.383 68.714,162.501 68.713,166.202 69.365 M241.402 69.365 C 264.524 73.434,269.969 103.201,249.759 115.045 C 240.297 120.590,228.162 118.919,220.221 110.979 C 206.068 96.826,213.803 72.784,233.600 69.396 C 237.583 68.714,237.701 68.713,241.402 69.365 M172.600 87.801 C 173.516 88.117,177.595 88.243,177.117 87.940 C 176.833 87.760,175.610 87.624,174.400 87.638 C 173.190 87.652,172.380 87.725,172.600 87.801 M247.800 87.801 C 248.716 88.117,252.795 88.243,252.317 87.940 C 252.033 87.760,250.810 87.624,249.600 87.638 C 248.390 87.652,247.580 87.725,247.800 87.801 M167.775 90.500 L 166.600 91.800 167.900 90.625 C 169.112 89.530,169.384 89.200,169.075 89.200 C 169.006 89.200,168.421 89.785,167.775 90.500 M242.975 90.500 L 241.800 91.800 243.100 90.625 C 243.815 89.979,244.400 89.394,244.400 89.325 C 244.400 89.016,244.070 89.288,242.975 90.500 M165.449 93.815 C 165.312 94.173,165.215 94.766,165.234 95.133 C 165.253 95.500,165.427 95.269,165.621 94.620 C 165.998 93.358,165.865 92.733,165.449 93.815 M240.649 93.815 C 240.512 94.173,240.415 94.766,240.434 95.133 C 240.453 95.500,240.627 95.269,240.821 94.620 C 241.198 93.358,241.065 92.733,240.649 93.815 M183.693 97.200 C 183.693 97.970,183.775 98.285,183.876 97.900 C 183.976 97.515,183.976 96.885,183.876 96.500 C 183.775 96.115,183.693 96.430,183.693 97.200 M203.081 96.456 C 206.073 97.676,206.705 98.058,208.076 99.475 C 210.371 101.847,211.326 104.453,211.052 107.600 C 210.928 109.030,211.008 110.920,211.231 111.800 C 212.207 115.649,212.742 118.450,213.180 122.000 C 213.438 124.090,213.945 127.690,214.306 130.000 C 214.667 132.310,214.963 135.370,214.963 136.800 C 214.963 138.230,214.667 141.290,214.306 143.600 C 213.945 145.910,213.438 149.510,213.180 151.600 C 212.738 155.181,212.176 158.112,211.224 161.800 C 210.996 162.680,210.920 164.427,211.055 165.682 C 211.728 171.963,206.499 177.600,200.000 177.600 C 196.835 177.600,193.803 176.190,191.535 173.662 C 189.399 171.282,188.607 168.841,188.945 165.682 C 189.080 164.427,189.004 162.680,188.776 161.800 C 187.938 158.553,187.295 155.318,186.867 152.200 C 186.626 150.440,186.119 146.840,185.742 144.200 C 185.364 141.560,185.055 138.230,185.055 136.800 C 185.055 135.370,185.364 132.040,185.742 129.400 C 186.119 126.760,186.626 123.160,186.867 121.400 C 187.289 118.323,187.909 115.192,188.769 111.800 C 188.992 110.920,189.072 109.030,188.948 107.600 C 188.590 103.487,191.117 98.940,194.600 97.429 C 195.260 97.143,196.250 96.716,196.800 96.481 C 198.145 95.907,201.699 95.893,203.081 96.456 M258.893 97.200 C 258.893 97.970,258.975 98.285,259.076 97.900 C 259.176 97.515,259.176 96.885,259.076 96.500 C 258.975 96.115,258.893 96.430,258.893 97.200 M173.905 106.683 C 174.402 106.779,175.122 106.775,175.505 106.675 C 175.887 106.575,175.480 106.496,174.600 106.501 C 173.720 106.505,173.407 106.587,173.905 106.683 M249.105 106.683 C 249.602 106.779,250.322 106.775,250.705 106.675 C 251.087 106.575,250.680 106.496,249.800 106.501 C 248.920 106.505,248.607 106.587,249.105 106.683 M157.200 348.525 C 157.200 348.594,157.785 349.179,158.500 349.825 L 159.800 351.000 158.625 349.700 C 157.530 348.488,157.200 348.216,157.200 348.525 M241.375 349.700 L 240.200 351.000 241.500 349.825 C 242.215 349.179,242.800 348.594,242.800 348.525 C 242.800 348.216,242.470 348.488,241.375 349.700 " stroke="none" fill="#292929" fill-rule="evenodd"></path><path id="path2" d="M183.314 97.000 C 183.317 98.100,183.395 98.503,183.487 97.895 C 183.579 97.286,183.577 96.386,183.482 95.895 C 183.387 95.403,183.311 95.900,183.314 97.000 M258.514 97.000 C 258.517 98.100,258.595 98.503,258.687 97.895 C 258.779 97.286,258.777 96.386,258.682 95.895 C 258.587 95.403,258.511 95.900,258.514 97.000 M165.293 97.200 C 165.293 97.970,165.375 98.285,165.476 97.900 C 165.576 97.515,165.576 96.885,165.476 96.500 C 165.375 96.115,165.293 96.430,165.293 97.200 M240.493 97.200 C 240.493 97.970,240.575 98.285,240.676 97.900 C 240.776 97.515,240.776 96.885,240.676 96.500 C 240.575 96.115,240.493 96.430,240.493 97.200 M173.700 106.276 C 174.085 106.376,174.715 106.376,175.100 106.276 C 175.485 106.175,175.170 106.093,174.400 106.093 C 173.630 106.093,173.315 106.175,173.700 106.276 M248.900 106.276 C 249.285 106.376,249.915 106.376,250.300 106.276 C 250.685 106.175,250.370 106.093,249.600 106.093 C 248.830 106.093,248.515 106.175,248.900 106.276 M173.389 340.412 C 169.486 344.485,162.183 344.886,154.649 341.440 C 153.399 340.868,152.281 340.400,152.166 340.400 C 151.881 340.400,153.321 342.965,153.700 343.133 C 153.865 343.207,154.000 343.445,154.000 343.662 C 154.000 343.879,154.225 344.293,154.500 344.582 C 154.775 344.870,155.630 345.882,156.400 346.830 C 160.423 351.785,166.776 356.400,169.572 356.400 C 170.001 356.400,170.464 356.580,170.600 356.800 C 170.924 357.325,175.479 357.319,175.804 356.793 C 176.179 356.186,176.699 356.663,177.466 358.317 C 180.321 364.478,189.575 373.360,192.586 372.829 C 192.706 372.808,193.455 373.063,194.251 373.395 C 196.241 374.227,203.759 374.227,205.749 373.395 C 206.545 373.063,207.294 372.808,207.414 372.829 C 210.425 373.360,219.679 364.478,222.534 358.317 C 223.301 356.663,223.821 356.186,224.196 356.793 C 224.521 357.319,229.076 357.325,229.400 356.800 C 229.536 356.580,229.999 356.400,230.428 356.400 C 233.224 356.400,239.577 351.785,243.600 346.830 C 244.370 345.882,245.225 344.870,245.500 344.582 C 245.775 344.293,246.000 343.879,246.000 343.662 C 246.000 343.445,246.135 343.207,246.300 343.133 C 246.679 342.965,248.119 340.400,247.834 340.400 C 247.719 340.400,246.601 340.868,245.351 341.440 C 237.907 344.845,231.231 344.556,226.899 340.642 C 225.347 339.240,224.400 339.253,224.400 340.676 C 224.400 340.960,223.683 342.563,222.806 344.238 C 210.664 367.426,187.580 366.623,176.389 342.624 C 174.536 338.651,174.852 338.884,173.389 340.412 " stroke="none" fill="#4c4c4b" fill-rule="evenodd"></path><path id="path3" d="M184.379 52.656 C 183.139 55.916,186.759 61.816,188.765 59.805 C 189.871 58.697,189.484 54.979,188.080 53.239 C 186.554 51.347,184.971 51.098,184.379 52.656 M212.079 53.030 C 210.335 55.146,210.030 59.230,211.545 60.166 C 212.811 60.948,215.308 58.110,215.773 55.362 C 216.394 51.685,214.285 50.354,212.079 53.030 M153.829 59.429 C 153.405 59.738,153.136 60.069,153.230 60.163 C 153.324 60.257,153.748 60.081,154.171 59.771 C 154.595 59.462,154.864 59.131,154.770 59.037 C 154.676 58.943,154.252 59.119,153.829 59.429 M245.200 59.100 C 245.200 59.269,245.560 59.632,246.000 59.907 C 246.440 60.182,246.800 60.269,246.800 60.100 C 246.800 59.931,246.440 59.568,246.000 59.293 C 245.560 59.018,245.200 58.931,245.200 59.100 M146.600 66.520 C 145.350 68.051,145.136 68.398,145.451 68.378 C 145.643 68.366,146.219 67.826,146.730 67.178 C 147.242 66.530,147.512 66.007,147.330 66.015 C 147.149 66.024,146.820 66.251,146.600 66.520 M253.230 67.100 C 253.764 67.705,254.245 68.275,254.300 68.367 C 254.355 68.458,254.483 68.451,254.584 68.349 C 254.818 68.116,253.016 66.000,252.584 66.000 C 252.406 66.000,252.697 66.495,253.230 67.100 M158.400 69.396 C 134.911 73.416,130.255 106.151,151.800 115.794 C 155.405 117.407,155.945 117.569,159.384 118.066 C 176.674 120.566,192.266 101.757,185.918 86.060 C 181.940 76.226,175.841 71.061,166.202 69.365 C 162.501 68.713,162.383 68.714,158.400 69.396 M233.600 69.396 C 213.803 72.784,206.068 96.826,220.221 110.979 C 228.162 118.919,240.297 120.590,249.759 115.045 C 269.969 103.201,264.524 73.434,241.402 69.365 C 237.701 68.713,237.583 68.714,233.600 69.396 M136.400 76.800 C 136.400 77.020,136.040 77.200,135.600 77.200 C 135.160 77.200,134.800 77.380,134.800 77.600 C 134.800 77.820,134.440 78.000,134.000 78.000 C 133.560 78.000,133.200 78.180,133.200 78.400 C 133.200 78.620,132.975 78.806,132.700 78.813 C 132.054 78.829,130.595 79.929,130.864 80.197 C 130.977 80.310,131.864 79.956,132.835 79.411 C 133.806 78.865,135.275 78.102,136.100 77.715 C 137.648 76.989,138.051 76.400,137.000 76.400 C 136.670 76.400,136.400 76.580,136.400 76.800 M262.400 76.706 C 262.400 76.874,263.075 77.328,263.900 77.715 C 264.725 78.102,266.193 78.865,267.163 79.410 C 269.166 80.535,269.200 80.545,269.200 80.000 C 269.200 79.780,268.964 79.600,268.675 79.600 C 268.387 79.600,267.764 79.240,267.292 78.800 C 266.820 78.360,266.156 78.000,265.817 78.000 C 265.478 78.000,265.200 77.820,265.200 77.600 C 265.200 77.380,264.840 77.200,264.400 77.200 C 263.960 77.200,263.600 77.020,263.600 76.800 C 263.600 76.580,263.330 76.400,263.000 76.400 C 262.670 76.400,262.400 76.538,262.400 76.706 M129.200 80.800 C 129.200 81.020,128.880 81.200,128.488 81.200 C 128.097 81.200,127.517 81.560,127.200 82.000 C 126.883 82.440,126.380 82.800,126.083 82.800 C 125.573 82.800,124.400 83.726,124.400 84.128 C 124.400 84.414,127.210 82.915,127.980 82.218 C 128.357 81.877,128.740 81.665,128.832 81.748 C 128.925 81.830,129.346 81.560,129.770 81.148 C 130.449 80.488,130.461 80.400,129.870 80.400 C 129.501 80.400,129.200 80.580,129.200 80.800 M270.230 81.148 C 270.654 81.560,271.077 81.828,271.170 81.745 C 271.264 81.661,271.759 81.986,272.270 82.466 C 272.812 82.975,273.200 83.131,273.200 82.841 C 273.200 82.145,272.181 81.200,271.429 81.200 C 271.083 81.200,270.800 81.020,270.800 80.800 C 270.800 80.580,270.499 80.400,270.130 80.400 C 269.539 80.400,269.551 80.488,270.230 81.148 M274.394 83.582 C 274.941 84.002,275.457 84.276,275.542 84.192 C 275.804 83.929,274.486 82.800,273.929 82.809 C 273.638 82.814,273.847 83.161,274.394 83.582 M122.400 85.200 C 122.083 85.640,121.543 86.000,121.200 86.000 C 120.857 86.000,120.317 86.360,120.000 86.800 C 119.683 87.240,119.238 87.600,119.012 87.600 C 118.516 87.601,116.201 89.539,116.435 89.758 C 116.621 89.931,120.770 87.176,122.842 85.504 C 123.664 84.841,123.958 84.407,123.588 84.404 C 123.252 84.402,122.717 84.760,122.400 85.200 M277.158 85.504 C 279.230 87.176,283.379 89.931,283.565 89.758 C 283.799 89.539,281.484 87.601,280.988 87.600 C 280.762 87.600,280.317 87.240,280.000 86.800 C 279.683 86.360,279.143 86.000,278.800 86.000 C 278.457 86.000,277.917 85.640,277.600 85.200 C 277.283 84.760,276.748 84.402,276.412 84.404 C 276.042 84.407,276.336 84.841,277.158 85.504 M178.221 88.452 C 183.420 90.896,185.465 97.170,182.581 101.834 C 177.319 110.345,165.200 106.856,165.200 96.829 C 165.200 90.127,172.201 85.622,178.221 88.452 M253.421 88.452 C 258.620 90.896,260.665 97.170,257.781 101.834 C 252.519 110.345,240.400 106.856,240.400 96.829 C 240.400 90.127,247.401 85.622,253.421 88.452 M114.159 91.104 C 113.522 91.712,112.379 92.650,111.619 93.189 C 108.050 95.724,93.200 110.656,93.200 111.711 C 93.200 111.928,92.811 112.443,92.336 112.856 C 91.861 113.268,91.565 113.698,91.679 113.812 C 91.793 113.926,92.763 112.980,93.834 111.710 C 98.797 105.826,106.105 98.495,111.000 94.491 C 114.897 91.303,116.274 90.004,115.759 90.002 C 115.517 90.001,114.797 90.497,114.159 91.104 M285.000 91.102 C 285.660 91.706,287.460 93.232,289.000 94.494 C 293.806 98.432,301.399 106.045,306.169 111.710 C 307.239 112.980,308.207 113.926,308.321 113.812 C 308.435 113.698,308.139 113.268,307.664 112.856 C 307.189 112.443,306.800 111.916,306.800 111.684 C 306.800 111.451,305.540 109.986,304.000 108.428 C 302.460 106.869,301.200 105.456,301.200 105.288 C 301.200 104.900,295.083 98.800,294.694 98.800 C 294.535 98.800,293.131 97.540,291.572 96.000 C 290.014 94.460,288.573 93.200,288.370 93.200 C 288.167 93.200,287.259 92.480,286.352 91.600 C 285.445 90.720,284.500 90.001,284.252 90.002 C 284.003 90.003,284.340 90.498,285.000 91.102 M86.500 116.998 C 85.757 117.842,85.894 118.073,86.800 117.507 C 87.240 117.232,87.600 116.871,87.600 116.704 C 87.600 116.227,87.049 116.375,86.500 116.998 M312.400 116.704 C 312.400 116.871,312.760 117.232,313.200 117.507 C 314.130 118.088,314.254 117.797,313.429 116.971 C 312.798 116.341,312.400 116.237,312.400 116.704 M83.018 119.818 C 82.387 120.360,81.945 120.878,82.035 120.968 C 82.126 121.058,82.716 120.688,83.346 120.145 C 83.977 119.603,84.419 119.085,84.329 118.996 C 84.239 118.906,83.649 119.276,83.018 119.818 M315.622 119.051 C 315.648 119.458,318.000 121.387,318.000 121.002 C 318.000 120.726,317.434 120.144,316.298 119.251 C 315.914 118.949,315.610 118.859,315.622 119.051 M72.900 129.798 C 72.331 130.445,72.261 130.800,72.704 130.800 C 72.871 130.800,73.232 130.440,73.507 130.000 C 74.078 129.087,73.651 128.945,72.900 129.798 M326.493 130.000 C 326.962 130.751,327.600 131.080,327.600 130.571 C 327.600 130.273,326.525 129.200,326.225 129.200 C 326.098 129.200,326.218 129.560,326.493 130.000 M69.693 134.000 C 69.418 134.440,69.331 134.800,69.500 134.800 C 69.669 134.800,70.032 134.440,70.307 134.000 C 70.582 133.560,70.669 133.200,70.500 133.200 C 70.331 133.200,69.968 133.560,69.693 134.000 M329.693 134.000 C 329.968 134.440,330.331 134.800,330.500 134.800 C 330.669 134.800,330.582 134.440,330.307 134.000 C 330.032 133.560,329.669 133.200,329.500 133.200 C 329.331 133.200,329.418 133.560,329.693 134.000 M60.422 229.000 C 60.427 229.529,61.542 230.991,61.769 230.765 C 61.866 230.668,61.602 230.141,61.182 229.594 C 60.761 229.047,60.420 228.780,60.422 229.000 M338.645 229.788 C 338.280 230.344,338.122 230.800,338.295 230.800 C 338.684 230.800,339.719 229.186,339.482 228.949 C 339.386 228.853,339.010 229.231,338.645 229.788 M76.406 265.900 C 76.403 266.395,76.580 266.800,76.800 266.800 C 77.301 266.800,77.301 266.376,76.800 265.600 C 76.486 265.115,76.411 265.172,76.406 265.900 M323.079 265.757 C 322.915 266.174,322.875 266.609,322.991 266.724 C 323.355 267.089,323.676 266.491,323.524 265.731 C 323.383 265.035,323.362 265.036,323.079 265.757 M86.822 286.600 C 86.827 287.129,87.942 288.591,88.169 288.365 C 88.266 288.268,88.002 287.741,87.582 287.194 C 87.161 286.647,86.820 286.380,86.822 286.600 M312.245 287.388 C 311.880 287.944,311.722 288.400,311.895 288.400 C 312.284 288.400,313.319 286.786,313.082 286.549 C 312.986 286.453,312.610 286.831,312.245 287.388 M91.622 294.600 C 91.627 295.129,92.742 296.591,92.969 296.365 C 93.066 296.268,92.802 295.741,92.382 295.194 C 91.961 294.647,91.620 294.380,91.622 294.600 M307.445 295.388 C 307.080 295.944,306.922 296.400,307.095 296.400 C 307.484 296.400,308.519 294.786,308.282 294.549 C 308.186 294.453,307.810 294.831,307.445 295.388 M93.222 297.000 C 93.227 297.529,94.342 298.991,94.569 298.765 C 94.666 298.668,94.402 298.141,93.982 297.594 C 93.561 297.047,93.220 296.780,93.222 297.000 M305.845 297.788 C 305.480 298.344,305.322 298.800,305.495 298.800 C 305.884 298.800,306.919 297.186,306.682 296.949 C 306.586 296.853,306.210 297.231,305.845 297.788 M94.813 299.411 C 94.834 300.071,95.975 301.358,96.274 301.060 C 96.429 300.905,96.161 300.383,95.678 299.900 C 95.195 299.417,94.806 299.197,94.813 299.411 M304.260 300.038 C 303.866 300.499,303.647 300.981,303.775 301.109 C 304.015 301.348,305.164 300.038,305.187 299.500 C 305.207 299.034,305.034 299.134,304.260 300.038 M97.209 302.729 C 97.200 303.286,98.329 304.604,98.592 304.342 C 98.676 304.257,98.402 303.741,97.982 303.194 C 97.561 302.647,97.214 302.438,97.209 302.729 M301.873 303.345 C 301.113 304.505,301.316 304.741,302.261 303.796 C 302.593 303.464,302.797 302.990,302.714 302.742 C 302.631 302.494,302.253 302.765,301.873 303.345 M99.600 305.815 C 99.601 306.296,101.546 308.589,101.763 308.365 C 101.850 308.274,101.400 307.577,100.761 306.815 C 100.122 306.053,99.600 305.603,99.600 305.815 M299.083 307.000 C 297.767 308.649,298.076 308.900,299.453 307.300 C 300.267 306.353,300.643 305.600,300.300 305.600 C 300.245 305.600,299.697 306.230,299.083 307.000 M103.271 310.373 C 103.848 311.433,107.175 314.963,107.387 314.739 C 107.458 314.662,106.443 313.430,105.129 312.000 C 103.816 310.570,102.980 309.838,103.271 310.373 M294.645 312.200 C 292.044 315.145,291.962 315.679,294.511 313.073 C 296.005 311.545,297.441 309.600,297.074 309.600 C 297.002 309.600,295.908 310.770,294.645 312.200 M118.800 312.543 C 118.800 312.956,120.812 314.922,121.020 314.713 C 121.114 314.619,120.654 314.026,119.996 313.396 C 119.338 312.766,118.800 312.382,118.800 312.543 M279.796 313.604 C 279.166 314.262,278.782 314.800,278.943 314.800 C 279.356 314.800,281.322 312.788,281.113 312.580 C 281.019 312.486,280.426 312.946,279.796 313.604 M115.194 315.618 C 114.647 316.039,114.438 316.386,114.729 316.391 C 115.286 316.400,116.604 315.271,116.342 315.008 C 116.257 314.924,115.741 315.198,115.194 315.618 M283.600 315.019 C 283.600 315.505,284.823 316.459,285.258 316.314 C 285.506 316.231,285.235 315.853,284.655 315.473 C 284.075 315.093,283.600 314.889,283.600 315.019 M122.000 315.810 C 122.000 316.256,123.199 317.267,123.567 317.132 C 123.764 317.059,123.493 316.677,122.963 316.281 C 122.433 315.886,122.000 315.674,122.000 315.810 M276.856 316.434 C 276.336 316.855,276.124 317.200,276.384 317.200 C 276.897 317.200,278.189 316.055,277.948 315.815 C 277.866 315.735,277.375 316.013,276.856 316.434 M126.000 318.256 C 126.000 318.591,127.297 319.571,127.762 319.587 C 127.961 319.594,127.798 319.240,127.400 318.800 C 126.691 318.016,126.000 317.748,126.000 318.256 M272.613 318.785 C 271.918 319.553,271.926 319.560,272.948 319.085 C 273.523 318.818,273.995 318.465,273.997 318.300 C 274.003 317.754,273.335 317.988,272.613 318.785 M128.400 319.895 C 128.400 320.284,130.014 321.319,130.251 321.082 C 130.347 320.986,129.969 320.610,129.412 320.245 C 128.856 319.880,128.400 319.722,128.400 319.895 M270.394 320.418 C 269.847 320.839,269.580 321.180,269.800 321.178 C 270.329 321.173,271.791 320.058,271.565 319.831 C 271.468 319.734,270.941 319.998,270.394 320.418 M134.800 323.767 C 134.800 324.188,136.005 325.328,136.221 325.112 C 136.322 325.011,136.044 324.602,135.602 324.202 C 135.161 323.803,134.800 323.607,134.800 323.767 M264.202 324.398 C 263.803 324.839,263.607 325.200,263.767 325.200 C 264.188 325.200,265.328 323.995,265.112 323.779 C 265.011 323.678,264.602 323.956,264.202 324.398 M137.209 326.729 C 137.200 327.286,138.329 328.604,138.592 328.342 C 138.676 328.257,138.402 327.741,137.982 327.194 C 137.561 326.647,137.214 326.438,137.209 326.729 M261.881 327.437 C 261.083 328.507,261.323 328.735,262.261 327.796 C 262.593 327.464,262.805 327.031,262.732 326.833 C 262.659 326.636,262.277 326.907,261.881 327.437 M139.648 330.000 C 140.829 331.752,145.133 336.023,146.429 336.729 C 146.963 337.020,146.320 336.272,145.000 335.067 C 143.680 333.862,141.724 331.913,140.652 330.738 C 139.330 329.287,139.008 329.050,139.648 330.000 M256.891 333.052 C 254.631 335.344,253.177 336.989,253.662 336.709 C 255.271 335.778,262.196 328.481,261.127 328.843 C 261.057 328.867,259.151 330.761,256.891 333.052 M147.600 337.425 C 147.600 337.725,148.673 338.800,148.971 338.800 C 149.480 338.800,149.151 338.162,148.400 337.693 C 147.960 337.418,147.600 337.298,147.600 337.425 M251.429 337.829 C 251.005 338.138,250.772 338.505,250.910 338.643 C 251.049 338.782,251.462 338.595,251.829 338.229 C 252.691 337.366,252.425 337.100,251.429 337.829 M150.351 339.640 C 150.847 340.102,151.363 340.370,151.497 340.236 C 151.632 340.102,151.395 339.729,150.971 339.409 C 149.793 338.518,149.331 338.690,150.351 339.640 M249.029 339.409 C 248.605 339.729,248.368 340.102,248.503 340.236 C 248.637 340.370,249.153 340.102,249.649 339.640 C 250.669 338.690,250.207 338.518,249.029 339.409 M239.429 351.429 C 239.005 351.738,238.736 352.069,238.830 352.163 C 238.924 352.257,239.348 352.081,239.771 351.771 C 240.195 351.462,240.464 351.131,240.370 351.037 C 240.276 350.943,239.852 351.119,239.429 351.429 M182.030 366.272 C 183.270 367.644,184.968 369.163,185.107 369.026 C 185.248 368.886,181.559 365.200,181.278 365.200 C 181.158 365.200,181.497 365.683,182.030 366.272 M216.490 367.112 C 215.549 368.102,214.829 368.962,214.890 369.022 C 215.031 369.163,216.718 367.656,217.970 366.272 C 219.610 364.458,218.308 365.197,216.490 367.112 " stroke="none" fill="#040404" fill-rule="evenodd"></path><path id="path4" d="M186.000 29.598 C 185.670 29.791,184.815 30.184,184.100 30.472 C 183.385 30.760,182.800 31.131,182.800 31.298 C 182.800 31.464,182.548 31.600,182.241 31.600 C 181.009 31.600,174.786 38.427,174.129 40.500 C 174.007 40.885,173.748 41.200,173.553 41.200 C 173.359 41.200,173.200 41.639,173.200 42.176 C 173.200 42.713,173.020 43.264,172.800 43.400 C 172.580 43.536,172.400 44.119,172.400 44.695 C 172.400 45.272,172.179 46.356,171.908 47.104 C 171.477 48.294,171.503 48.514,172.108 48.852 C 172.489 49.065,172.800 49.490,172.800 49.796 C 172.800 51.180,173.800 50.544,177.340 46.905 C 183.497 40.578,188.800 32.666,188.800 29.808 C 188.800 29.133,187.023 29.000,186.000 29.598 M211.200 29.808 C 211.200 32.666,216.503 40.578,222.660 46.905 C 226.200 50.544,227.200 51.180,227.200 49.796 C 227.200 49.490,227.511 49.065,227.892 48.852 C 228.497 48.514,228.523 48.294,228.092 47.104 C 227.821 46.356,227.600 45.349,227.600 44.866 C 227.600 44.384,227.443 43.677,227.250 43.295 C 227.058 42.913,226.549 41.880,226.120 41.000 C 225.691 40.120,225.083 38.958,224.770 38.417 C 223.930 36.968,218.409 31.600,217.759 31.600 C 217.452 31.600,217.200 31.464,217.200 31.298 C 217.200 31.131,216.615 30.760,215.900 30.471 C 215.185 30.183,214.287 29.779,213.905 29.574 C 212.801 28.979,211.200 29.118,211.200 29.808 M196.800 96.481 C 196.250 96.716,195.260 97.143,194.600 97.429 C 191.117 98.940,188.590 103.487,188.948 107.600 C 189.072 109.030,188.992 110.920,188.769 111.800 C 187.909 115.192,187.289 118.323,186.867 121.400 C 186.626 123.160,186.119 126.760,185.742 129.400 C 185.364 132.040,185.055 135.370,185.055 136.800 C 185.055 138.230,185.364 141.560,185.742 144.200 C 186.119 146.840,186.626 150.440,186.867 152.200 C 187.295 155.318,187.938 158.553,188.776 161.800 C 189.004 162.680,189.080 164.427,188.945 165.682 C 188.272 171.963,193.501 177.600,200.000 177.600 C 203.165 177.600,206.197 176.190,208.465 173.662 C 210.601 171.282,211.393 168.841,211.055 165.682 C 210.920 164.427,210.996 162.680,211.224 161.800 C 212.176 158.112,212.738 155.181,213.180 151.600 C 213.438 149.510,213.945 145.910,214.306 143.600 C 214.667 141.290,214.963 138.230,214.963 136.800 C 214.963 135.370,214.667 132.310,214.306 130.000 C 213.945 127.690,213.438 124.090,213.180 122.000 C 212.742 118.450,212.207 115.649,211.231 111.800 C 211.008 110.920,210.928 109.030,211.052 107.600 C 211.237 105.480,211.119 104.631,210.415 103.000 C 208.582 98.754,204.375 95.969,199.881 96.027 C 198.737 96.042,197.350 96.246,196.800 96.481 " stroke="none" fill="#4c140c" fill-rule="evenodd"></path><path id="path5" d="M188.800 29.728 C 188.800 32.955,183.515 40.600,176.015 48.220 C 167.117 57.261,167.215 59.087,176.818 63.188 C 180.712 64.851,181.248 65.228,185.386 69.212 C 197.700 81.071,202.300 81.071,214.614 69.212 C 218.752 65.228,219.288 64.851,223.182 63.188 C 232.785 59.087,232.883 57.261,223.985 48.220 C 216.485 40.600,211.200 32.955,211.200 29.728 C 211.200 29.240,211.076 29.164,210.772 29.468 C 209.234 31.006,216.253 41.397,224.232 49.393 C 229.043 54.214,229.990 55.641,229.998 58.080 C 230.001 59.120,227.834 60.543,223.032 62.654 C 218.872 64.483,218.424 64.803,213.610 69.387 C 202.256 80.197,197.744 80.197,186.390 69.387 C 181.576 64.803,181.128 64.483,176.968 62.654 C 172.166 60.543,169.999 59.120,170.002 58.080 C 170.010 55.641,170.957 54.214,175.768 49.393 C 183.747 41.397,190.766 31.006,189.228 29.468 C 188.924 29.164,188.800 29.240,188.800 29.728 M183.862 51.531 C 183.498 51.934,183.216 52.699,183.236 53.231 C 183.267 54.058,183.327 54.010,183.646 52.905 C 184.108 51.307,185.609 50.789,187.157 51.692 C 189.471 53.042,190.784 57.903,189.377 59.911 C 188.646 60.956,189.065 61.126,189.843 60.100 C 192.592 56.479,186.841 48.240,183.862 51.531 M212.016 51.848 C 209.830 53.687,208.791 58.300,210.157 60.100 C 210.935 61.126,211.354 60.956,210.623 59.911 C 209.216 57.903,210.529 53.042,212.843 51.692 C 214.391 50.789,215.892 51.307,216.354 52.905 C 216.700 54.102,216.731 54.122,216.764 53.162 C 216.845 50.831,214.120 50.077,212.016 51.848 M183.240 55.365 C 183.160 57.692,186.114 61.244,188.080 61.184 C 188.366 61.176,188.038 60.924,187.352 60.625 C 185.756 59.931,184.122 57.790,183.649 55.774 C 183.321 54.372,183.276 54.327,183.240 55.365 M216.314 55.737 C 215.968 57.665,214.281 59.915,212.648 60.625 C 211.962 60.924,211.634 61.176,211.920 61.184 C 213.929 61.245,216.985 57.511,216.723 55.317 C 216.602 54.309,216.562 54.350,216.314 55.737 " stroke="none" fill="#806632" fill-rule="evenodd"></path><path id="path6" d="M171.822 88.691 C 167.205 89.865,164.342 95.693,166.199 100.136 C 169.966 109.152,183.200 106.868,183.200 97.203 C 183.200 91.259,177.751 87.182,171.822 88.691 M247.022 88.691 C 242.405 89.865,239.542 95.693,241.399 100.136 C 245.166 109.152,258.400 106.868,258.400 97.203 C 258.400 91.259,252.951 87.182,247.022 88.691 M178.447 89.824 C 183.819 92.602,184.145 100.443,179.032 103.900 C 172.628 108.230,164.043 101.857,166.556 94.637 C 168.257 89.751,173.893 87.469,178.447 89.824 M253.647 89.824 C 259.019 92.602,259.345 100.443,254.232 103.900 C 247.828 108.230,239.243 101.857,241.756 94.637 C 243.457 89.751,249.093 87.469,253.647 89.824 " stroke="none" fill="#8c8c8c" fill-rule="evenodd"></path><path id="path7" d="M173.500 88.282 C 173.995 88.378,174.805 88.378,175.300 88.282 C 175.795 88.187,175.390 88.109,174.400 88.109 C 173.410 88.109,173.005 88.187,173.500 88.282 M248.700 88.282 C 249.195 88.378,250.005 88.378,250.500 88.282 C 250.995 88.187,250.590 88.109,249.600 88.109 C 248.610 88.109,248.205 88.187,248.700 88.282 " stroke="none" fill="#848484" fill-rule="evenodd"></path><path id="path8" d="M171.440 52.240 C 170.648 53.032,170.005 53.977,170.012 54.340 C 170.022 54.873,170.109 54.846,170.465 54.200 C 170.707 53.760,171.457 52.815,172.131 52.100 C 173.799 50.332,173.234 50.446,171.440 52.240 M227.847 52.017 C 228.533 52.778,229.293 53.760,229.535 54.200 C 229.843 54.758,229.979 54.819,229.987 54.400 C 230.000 53.758,228.709 52.169,227.400 51.217 C 226.960 50.897,227.161 51.257,227.847 52.017 M169.200 58.775 C 169.200 59.567,172.621 62.313,173.060 61.873 C 173.178 61.755,172.734 61.379,172.072 61.037 C 171.411 60.696,170.495 59.938,170.035 59.354 C 169.576 58.770,169.200 58.509,169.200 58.775 M230.080 59.221 C 229.795 59.676,228.933 60.420,228.164 60.874 C 227.395 61.328,226.853 61.786,226.960 61.893 C 227.399 62.333,230.940 59.421,230.731 58.792 C 230.657 58.572,230.365 58.765,230.080 59.221 M175.600 62.965 C 175.600 63.209,178.031 64.400,178.528 64.400 C 178.751 64.400,178.849 64.316,178.746 64.213 C 178.433 63.900,175.600 62.777,175.600 62.965 M222.600 63.578 C 221.720 63.995,221.197 64.350,221.439 64.368 C 221.928 64.404,224.400 63.238,224.400 62.971 C 224.400 62.730,224.376 62.738,222.600 63.578 M179.200 64.524 C 179.200 64.617,179.965 65.198,180.900 65.815 C 181.835 66.432,182.389 66.680,182.131 66.368 C 181.634 65.767,179.200 64.236,179.200 64.524 M219.093 65.414 C 218.272 65.972,217.600 66.515,217.600 66.620 C 217.600 66.725,218.320 66.335,219.200 65.753 C 220.597 64.828,221.070 64.400,220.693 64.400 C 220.634 64.400,219.914 64.856,219.093 65.414 M182.800 66.928 C 182.800 67.364,189.236 73.751,190.668 74.737 C 192.433 75.951,196.387 78.002,196.941 77.991 C 197.193 77.986,195.792 77.131,193.826 76.091 C 190.976 74.583,189.498 73.435,186.526 70.422 C 184.477 68.345,182.800 66.772,182.800 66.928 M213.367 70.525 C 210.497 73.443,209.016 74.589,206.176 76.091 C 204.209 77.131,202.807 77.986,203.059 77.991 C 203.613 78.002,207.567 75.951,209.332 74.737 C 210.773 73.745,217.348 67.214,217.127 66.994 C 217.048 66.914,215.356 68.503,213.367 70.525 M197.800 78.400 C 197.936 78.620,198.442 78.787,198.924 78.772 C 199.769 78.745,199.771 78.731,199.000 78.400 C 197.899 77.927,197.508 77.927,197.800 78.400 M201.000 78.400 C 200.229 78.731,200.231 78.745,201.076 78.772 C 201.558 78.787,202.064 78.620,202.200 78.400 C 202.492 77.927,202.101 77.927,201.000 78.400 M173.200 339.863 C 169.237 343.979,160.988 344.388,154.576 340.787 C 152.750 339.761,150.373 339.994,152.055 341.034 C 152.348 341.215,152.416 341.150,152.238 340.862 C 151.834 340.208,152.090 340.269,154.649 341.440 C 162.127 344.860,168.767 344.558,173.150 340.598 L 174.764 339.140 176.375 342.594 C 187.581 366.624,210.656 367.441,222.806 344.238 C 223.683 342.563,224.400 340.960,224.400 340.676 C 224.400 339.253,225.347 339.240,226.899 340.642 C 231.231 344.556,237.907 344.845,245.351 341.440 C 247.910 340.269,248.166 340.208,247.762 340.862 C 247.584 341.150,247.652 341.215,247.945 341.034 C 249.627 339.994,247.250 339.761,245.424 340.787 C 238.960 344.417,230.840 343.984,226.700 339.787 C 225.875 338.951,225.130 338.342,225.044 338.433 C 224.958 338.525,224.163 340.161,223.277 342.070 C 211.641 367.124,187.933 366.995,176.595 341.815 C 174.818 337.869,175.012 337.980,173.200 339.863 " stroke="none" fill="#444444" fill-rule="evenodd"></path></g></svg>